<?xml version="1.0" encoding="utf-8" standalone="no"?>
<!DOCTYPE svg PUBLIC "-//W3C//DTD SVG 1.1//EN"
  "http://www.w3.org/Graphics/SVG/1.1/DTD/svg11.dtd">
<!-- Created with matplotlib (https://matplotlib.org/) -->
<svg height="432pt" version="1.1" viewBox="0 0 648 432" width="648pt" xmlns="http://www.w3.org/2000/svg" xmlns:xlink="http://www.w3.org/1999/xlink">
 <defs>
  <style type="text/css">
*{stroke-linecap:butt;stroke-linejoin:round;}
  </style>
 </defs>
 <g id="figure_1">
  <g id="patch_1">
   <path d="M 0 432 
L 648 432 
L 648 0 
L 0 0 
z
" style="fill:#ffffff;"/>
  </g>
  <g id="axes_1">
   <g id="patch_2">
    <path d="M 81 378 
L 583.2 378 
L 583.2 51.84 
L 81 51.84 
z
" style="fill:#ffffff;"/>
   </g>
   <g id="matplotlib.axis_1">
    <g id="xtick_1">
     <g id="line2d_1">
      <defs>
       <path d="M 0 0 
L 0 3.5 
" id="m12f07010d9" style="stroke:#000000;stroke-width:0.8;"/>
      </defs>
      <g>
       <use style="stroke:#000000;stroke-width:0.8;" x="305.574923" xlink:href="#m12f07010d9" y="378"/>
      </g>
     </g>
     <g id="text_1">
      <!-- $\mathdefault{10^{2}}$ -->
      <defs>
       <path d="M 12.40625 8.296875 
L 28.515625 8.296875 
L 28.515625 63.921875 
L 10.984375 60.40625 
L 10.984375 69.390625 
L 28.421875 72.90625 
L 38.28125 72.90625 
L 38.28125 8.296875 
L 54.390625 8.296875 
L 54.390625 0 
L 12.40625 0 
z
" id="DejaVuSans-49"/>
       <path d="M 31.78125 66.40625 
Q 24.171875 66.40625 20.328125 58.90625 
Q 16.5 51.421875 16.5 36.375 
Q 16.5 21.390625 20.328125 13.890625 
Q 24.171875 6.390625 31.78125 6.390625 
Q 39.453125 6.390625 43.28125 13.890625 
Q 47.125 21.390625 47.125 36.375 
Q 47.125 51.421875 43.28125 58.90625 
Q 39.453125 66.40625 31.78125 66.40625 
z
M 31.78125 74.21875 
Q 44.046875 74.21875 50.515625 64.515625 
Q 56.984375 54.828125 56.984375 36.375 
Q 56.984375 17.96875 50.515625 8.265625 
Q 44.046875 -1.421875 31.78125 -1.421875 
Q 19.53125 -1.421875 13.0625 8.265625 
Q 6.59375 17.96875 6.59375 36.375 
Q 6.59375 54.828125 13.0625 64.515625 
Q 19.53125 74.21875 31.78125 74.21875 
z
" id="DejaVuSans-48"/>
       <path d="M 19.1875 8.296875 
L 53.609375 8.296875 
L 53.609375 0 
L 7.328125 0 
L 7.328125 8.296875 
Q 12.9375 14.109375 22.625 23.890625 
Q 32.328125 33.6875 34.8125 36.53125 
Q 39.546875 41.84375 41.421875 45.53125 
Q 43.3125 49.21875 43.3125 52.78125 
Q 43.3125 58.59375 39.234375 62.25 
Q 35.15625 65.921875 28.609375 65.921875 
Q 23.96875 65.921875 18.8125 64.3125 
Q 13.671875 62.703125 7.8125 59.421875 
L 7.8125 69.390625 
Q 13.765625 71.78125 18.9375 73 
Q 24.125 74.21875 28.421875 74.21875 
Q 39.75 74.21875 46.484375 68.546875 
Q 53.21875 62.890625 53.21875 53.421875 
Q 53.21875 48.921875 51.53125 44.890625 
Q 49.859375 40.875 45.40625 35.40625 
Q 44.1875 33.984375 37.640625 27.21875 
Q 31.109375 20.453125 19.1875 8.296875 
z
" id="DejaVuSans-50"/>
      </defs>
      <g transform="translate(293.254923 395.637812)scale(0.14 -0.14)">
       <use transform="translate(0 0.765625)" xlink:href="#DejaVuSans-49"/>
       <use transform="translate(63.623047 0.765625)" xlink:href="#DejaVuSans-48"/>
       <use transform="translate(128.203125 39.046875)scale(0.7)" xlink:href="#DejaVuSans-50"/>
      </g>
     </g>
    </g>
    <g id="xtick_2">
     <g id="line2d_2">
      <defs>
       <path d="M 0 0 
L 0 2 
" id="m135f2d3cfd" style="stroke:#000000;stroke-width:0.6;"/>
      </defs>
      <g>
       <use style="stroke:#000000;stroke-width:0.6;" x="127.002076" xlink:href="#m135f2d3cfd" y="378"/>
      </g>
     </g>
    </g>
    <g id="xtick_3">
     <g id="line2d_3">
      <g>
       <use style="stroke:#000000;stroke-width:0.6;" x="169.670985" xlink:href="#m135f2d3cfd" y="378"/>
      </g>
     </g>
    </g>
    <g id="xtick_4">
     <g id="line2d_4">
      <g>
       <use style="stroke:#000000;stroke-width:0.6;" x="202.767563" xlink:href="#m135f2d3cfd" y="378"/>
      </g>
     </g>
    </g>
    <g id="xtick_5">
     <g id="line2d_5">
      <g>
       <use style="stroke:#000000;stroke-width:0.6;" x="229.809436" xlink:href="#m135f2d3cfd" y="378"/>
      </g>
     </g>
    </g>
    <g id="xtick_6">
     <g id="line2d_6">
      <g>
       <use style="stroke:#000000;stroke-width:0.6;" x="252.673013" xlink:href="#m135f2d3cfd" y="378"/>
      </g>
     </g>
    </g>
    <g id="xtick_7">
     <g id="line2d_7">
      <g>
       <use style="stroke:#000000;stroke-width:0.6;" x="272.478345" xlink:href="#m135f2d3cfd" y="378"/>
      </g>
     </g>
    </g>
    <g id="xtick_8">
     <g id="line2d_8">
      <g>
       <use style="stroke:#000000;stroke-width:0.6;" x="289.947886" xlink:href="#m135f2d3cfd" y="378"/>
      </g>
     </g>
    </g>
    <g id="xtick_9">
     <g id="line2d_9">
      <g>
       <use style="stroke:#000000;stroke-width:0.6;" x="408.382282" xlink:href="#m135f2d3cfd" y="378"/>
      </g>
     </g>
    </g>
    <g id="xtick_10">
     <g id="line2d_10">
      <g>
       <use style="stroke:#000000;stroke-width:0.6;" x="468.520732" xlink:href="#m135f2d3cfd" y="378"/>
      </g>
     </g>
    </g>
    <g id="xtick_11">
     <g id="line2d_11">
      <g>
       <use style="stroke:#000000;stroke-width:0.6;" x="511.189642" xlink:href="#m135f2d3cfd" y="378"/>
      </g>
     </g>
    </g>
    <g id="xtick_12">
     <g id="line2d_12">
      <g>
       <use style="stroke:#000000;stroke-width:0.6;" x="544.286219" xlink:href="#m135f2d3cfd" y="378"/>
      </g>
     </g>
    </g>
    <g id="xtick_13">
     <g id="line2d_13">
      <g>
       <use style="stroke:#000000;stroke-width:0.6;" x="571.328092" xlink:href="#m135f2d3cfd" y="378"/>
      </g>
     </g>
    </g>
    <g id="text_2">
     <!-- Concentração de NaSal/mmol.L$^{-1}$ -->
     <defs>
      <path d="M 64.40625 67.28125 
L 64.40625 56.890625 
Q 59.421875 61.53125 53.78125 63.8125 
Q 48.140625 66.109375 41.796875 66.109375 
Q 29.296875 66.109375 22.65625 58.46875 
Q 16.015625 50.828125 16.015625 36.375 
Q 16.015625 21.96875 22.65625 14.328125 
Q 29.296875 6.6875 41.796875 6.6875 
Q 48.140625 6.6875 53.78125 8.984375 
Q 59.421875 11.28125 64.40625 15.921875 
L 64.40625 5.609375 
Q 59.234375 2.09375 53.4375 0.328125 
Q 47.65625 -1.421875 41.21875 -1.421875 
Q 24.65625 -1.421875 15.125 8.703125 
Q 5.609375 18.84375 5.609375 36.375 
Q 5.609375 53.953125 15.125 64.078125 
Q 24.65625 74.21875 41.21875 74.21875 
Q 47.75 74.21875 53.53125 72.484375 
Q 59.328125 70.75 64.40625 67.28125 
z
" id="DejaVuSans-67"/>
      <path d="M 30.609375 48.390625 
Q 23.390625 48.390625 19.1875 42.75 
Q 14.984375 37.109375 14.984375 27.296875 
Q 14.984375 17.484375 19.15625 11.84375 
Q 23.34375 6.203125 30.609375 6.203125 
Q 37.796875 6.203125 41.984375 11.859375 
Q 46.1875 17.53125 46.1875 27.296875 
Q 46.1875 37.015625 41.984375 42.703125 
Q 37.796875 48.390625 30.609375 48.390625 
z
M 30.609375 56 
Q 42.328125 56 49.015625 48.375 
Q 55.71875 40.765625 55.71875 27.296875 
Q 55.71875 13.875 49.015625 6.21875 
Q 42.328125 -1.421875 30.609375 -1.421875 
Q 18.84375 -1.421875 12.171875 6.21875 
Q 5.515625 13.875 5.515625 27.296875 
Q 5.515625 40.765625 12.171875 48.375 
Q 18.84375 56 30.609375 56 
z
" id="DejaVuSans-111"/>
      <path d="M 54.890625 33.015625 
L 54.890625 0 
L 45.90625 0 
L 45.90625 32.71875 
Q 45.90625 40.484375 42.875 44.328125 
Q 39.84375 48.1875 33.796875 48.1875 
Q 26.515625 48.1875 22.3125 43.546875 
Q 18.109375 38.921875 18.109375 30.90625 
L 18.109375 0 
L 9.078125 0 
L 9.078125 54.6875 
L 18.109375 54.6875 
L 18.109375 46.1875 
Q 21.34375 51.125 25.703125 53.5625 
Q 30.078125 56 35.796875 56 
Q 45.21875 56 50.046875 50.171875 
Q 54.890625 44.34375 54.890625 33.015625 
z
" id="DejaVuSans-110"/>
      <path d="M 48.78125 52.59375 
L 48.78125 44.1875 
Q 44.96875 46.296875 41.140625 47.34375 
Q 37.3125 48.390625 33.40625 48.390625 
Q 24.65625 48.390625 19.8125 42.84375 
Q 14.984375 37.3125 14.984375 27.296875 
Q 14.984375 17.28125 19.8125 11.734375 
Q 24.65625 6.203125 33.40625 6.203125 
Q 37.3125 6.203125 41.140625 7.25 
Q 44.96875 8.296875 48.78125 10.40625 
L 48.78125 2.09375 
Q 45.015625 0.34375 40.984375 -0.53125 
Q 36.96875 -1.421875 32.421875 -1.421875 
Q 20.0625 -1.421875 12.78125 6.34375 
Q 5.515625 14.109375 5.515625 27.296875 
Q 5.515625 40.671875 12.859375 48.328125 
Q 20.21875 56 33.015625 56 
Q 37.15625 56 41.109375 55.140625 
Q 45.0625 54.296875 48.78125 52.59375 
z
" id="DejaVuSans-99"/>
      <path d="M 56.203125 29.59375 
L 56.203125 25.203125 
L 14.890625 25.203125 
Q 15.484375 15.921875 20.484375 11.0625 
Q 25.484375 6.203125 34.421875 6.203125 
Q 39.59375 6.203125 44.453125 7.46875 
Q 49.3125 8.734375 54.109375 11.28125 
L 54.109375 2.78125 
Q 49.265625 0.734375 44.1875 -0.34375 
Q 39.109375 -1.421875 33.890625 -1.421875 
Q 20.796875 -1.421875 13.15625 6.1875 
Q 5.515625 13.8125 5.515625 26.8125 
Q 5.515625 40.234375 12.765625 48.109375 
Q 20.015625 56 32.328125 56 
Q 43.359375 56 49.78125 48.890625 
Q 56.203125 41.796875 56.203125 29.59375 
z
M 47.21875 32.234375 
Q 47.125 39.59375 43.09375 43.984375 
Q 39.0625 48.390625 32.421875 48.390625 
Q 24.90625 48.390625 20.390625 44.140625 
Q 15.875 39.890625 15.1875 32.171875 
z
" id="DejaVuSans-101"/>
      <path d="M 18.3125 70.21875 
L 18.3125 54.6875 
L 36.8125 54.6875 
L 36.8125 47.703125 
L 18.3125 47.703125 
L 18.3125 18.015625 
Q 18.3125 11.328125 20.140625 9.421875 
Q 21.96875 7.515625 27.59375 7.515625 
L 36.8125 7.515625 
L 36.8125 0 
L 27.59375 0 
Q 17.1875 0 13.234375 3.875 
Q 9.28125 7.765625 9.28125 18.015625 
L 9.28125 47.703125 
L 2.6875 47.703125 
L 2.6875 54.6875 
L 9.28125 54.6875 
L 9.28125 70.21875 
z
" id="DejaVuSans-116"/>
      <path d="M 41.109375 46.296875 
Q 39.59375 47.171875 37.8125 47.578125 
Q 36.03125 48 33.890625 48 
Q 26.265625 48 22.1875 43.046875 
Q 18.109375 38.09375 18.109375 28.8125 
L 18.109375 0 
L 9.078125 0 
L 9.078125 54.6875 
L 18.109375 54.6875 
L 18.109375 46.1875 
Q 20.953125 51.171875 25.484375 53.578125 
Q 30.03125 56 36.53125 56 
Q 37.453125 56 38.578125 55.875 
Q 39.703125 55.765625 41.0625 55.515625 
z
" id="DejaVuSans-114"/>
      <path d="M 34.28125 27.484375 
Q 23.390625 27.484375 19.1875 25 
Q 14.984375 22.515625 14.984375 16.5 
Q 14.984375 11.71875 18.140625 8.90625 
Q 21.296875 6.109375 26.703125 6.109375 
Q 34.1875 6.109375 38.703125 11.40625 
Q 43.21875 16.703125 43.21875 25.484375 
L 43.21875 27.484375 
z
M 52.203125 31.203125 
L 52.203125 0 
L 43.21875 0 
L 43.21875 8.296875 
Q 40.140625 3.328125 35.546875 0.953125 
Q 30.953125 -1.421875 24.3125 -1.421875 
Q 15.921875 -1.421875 10.953125 3.296875 
Q 6 8.015625 6 15.921875 
Q 6 25.140625 12.171875 29.828125 
Q 18.359375 34.515625 30.609375 34.515625 
L 43.21875 34.515625 
L 43.21875 35.40625 
Q 43.21875 41.609375 39.140625 45 
Q 35.0625 48.390625 27.6875 48.390625 
Q 23 48.390625 18.546875 47.265625 
Q 14.109375 46.140625 10.015625 43.890625 
L 10.015625 52.203125 
Q 14.9375 54.109375 19.578125 55.046875 
Q 24.21875 56 28.609375 56 
Q 40.484375 56 46.34375 49.84375 
Q 52.203125 43.703125 52.203125 31.203125 
z
" id="DejaVuSans-97"/>
      <path d="M 48.78125 52.59375 
L 48.78125 44.1875 
Q 44.96875 46.296875 41.140625 47.34375 
Q 37.3125 48.390625 33.40625 48.390625 
Q 24.65625 48.390625 19.8125 42.84375 
Q 14.984375 37.3125 14.984375 27.296875 
Q 14.984375 17.28125 19.8125 11.734375 
Q 24.65625 6.203125 33.40625 6.203125 
Q 37.3125 6.203125 41.140625 7.25 
Q 44.96875 8.296875 48.78125 10.40625 
L 48.78125 2.09375 
Q 45.015625 0.34375 40.984375 -0.53125 
Q 36.96875 -1.421875 32.421875 -1.421875 
Q 20.0625 -1.421875 12.78125 6.34375 
Q 5.515625 14.109375 5.515625 27.296875 
Q 5.515625 40.671875 12.859375 48.328125 
Q 20.21875 56 33.015625 56 
Q 37.15625 56 41.109375 55.140625 
Q 45.0625 54.296875 48.78125 52.59375 
z
M 36.078125 0 
Q 38.765625 -3.03125 40.078125 -5.59375 
Q 41.40625 -8.15625 41.40625 -10.5 
Q 41.40625 -14.84375 38.46875 -17.0625 
Q 35.546875 -19.28125 29.78125 -19.28125 
Q 27.546875 -19.28125 25.421875 -18.984375 
Q 23.296875 -18.703125 21.1875 -18.109375 
L 21.1875 -11.71875 
Q 22.859375 -12.546875 24.65625 -12.90625 
Q 26.46875 -13.28125 28.765625 -13.28125 
Q 31.640625 -13.28125 33.109375 -12.109375 
Q 34.578125 -10.9375 34.578125 -8.6875 
Q 34.578125 -7.234375 33.515625 -5.109375 
Q 32.46875 -2.984375 30.28125 0 
z
" id="DejaVuSans-231"/>
      <path d="M 34.28125 27.484375 
Q 23.390625 27.484375 19.1875 25 
Q 14.984375 22.515625 14.984375 16.5 
Q 14.984375 11.71875 18.140625 8.90625 
Q 21.296875 6.109375 26.703125 6.109375 
Q 34.1875 6.109375 38.703125 11.40625 
Q 43.21875 16.703125 43.21875 25.484375 
L 43.21875 27.484375 
z
M 52.203125 31.203125 
L 52.203125 0 
L 43.21875 0 
L 43.21875 8.296875 
Q 40.140625 3.328125 35.546875 0.953125 
Q 30.953125 -1.421875 24.3125 -1.421875 
Q 15.921875 -1.421875 10.953125 3.296875 
Q 6 8.015625 6 15.921875 
Q 6 25.140625 12.171875 29.828125 
Q 18.359375 34.515625 30.609375 34.515625 
L 43.21875 34.515625 
L 43.21875 35.40625 
Q 43.21875 41.609375 39.140625 45 
Q 35.0625 48.390625 27.6875 48.390625 
Q 23 48.390625 18.546875 47.265625 
Q 14.109375 46.140625 10.015625 43.890625 
L 10.015625 52.203125 
Q 14.9375 54.109375 19.578125 55.046875 
Q 24.21875 56 28.609375 56 
Q 40.484375 56 46.34375 49.84375 
Q 52.203125 43.703125 52.203125 31.203125 
z
M 28.8125 66.890625 
L 26.03125 69.578125 
Q 24.953125 70.5625 24.140625 71.015625 
Q 23.34375 71.484375 22.703125 71.484375 
Q 20.84375 71.484375 19.96875 69.703125 
Q 19.09375 67.921875 19 63.921875 
L 12.890625 63.921875 
Q 12.984375 70.515625 15.46875 74.09375 
Q 17.96875 77.6875 22.40625 77.6875 
Q 24.265625 77.6875 25.828125 77 
Q 27.390625 76.3125 29.203125 74.703125 
L 31.984375 72.015625 
Q 33.0625 71.046875 33.859375 70.578125 
Q 34.671875 70.125 35.296875 70.125 
Q 37.15625 70.125 38.03125 71.90625 
Q 38.921875 73.6875 39.015625 77.6875 
L 45.125 77.6875 
Q 45.015625 71.09375 42.53125 67.5 
Q 40.046875 63.921875 35.59375 63.921875 
Q 33.734375 63.921875 32.171875 64.59375 
Q 30.609375 65.28125 28.8125 66.890625 
z
" id="DejaVuSans-227"/>
      <path id="DejaVuSans-32"/>
      <path d="M 45.40625 46.390625 
L 45.40625 75.984375 
L 54.390625 75.984375 
L 54.390625 0 
L 45.40625 0 
L 45.40625 8.203125 
Q 42.578125 3.328125 38.25 0.953125 
Q 33.9375 -1.421875 27.875 -1.421875 
Q 17.96875 -1.421875 11.734375 6.484375 
Q 5.515625 14.40625 5.515625 27.296875 
Q 5.515625 40.1875 11.734375 48.09375 
Q 17.96875 56 27.875 56 
Q 33.9375 56 38.25 53.625 
Q 42.578125 51.265625 45.40625 46.390625 
z
M 14.796875 27.296875 
Q 14.796875 17.390625 18.875 11.75 
Q 22.953125 6.109375 30.078125 6.109375 
Q 37.203125 6.109375 41.296875 11.75 
Q 45.40625 17.390625 45.40625 27.296875 
Q 45.40625 37.203125 41.296875 42.84375 
Q 37.203125 48.484375 30.078125 48.484375 
Q 22.953125 48.484375 18.875 42.84375 
Q 14.796875 37.203125 14.796875 27.296875 
z
" id="DejaVuSans-100"/>
      <path d="M 9.8125 72.90625 
L 23.09375 72.90625 
L 55.421875 11.921875 
L 55.421875 72.90625 
L 64.984375 72.90625 
L 64.984375 0 
L 51.703125 0 
L 19.390625 60.984375 
L 19.390625 0 
L 9.8125 0 
z
" id="DejaVuSans-78"/>
      <path d="M 53.515625 70.515625 
L 53.515625 60.890625 
Q 47.90625 63.578125 42.921875 64.890625 
Q 37.9375 66.21875 33.296875 66.21875 
Q 25.25 66.21875 20.875 63.09375 
Q 16.5 59.96875 16.5 54.203125 
Q 16.5 49.359375 19.40625 46.890625 
Q 22.3125 44.4375 30.421875 42.921875 
L 36.375 41.703125 
Q 47.40625 39.59375 52.65625 34.296875 
Q 57.90625 29 57.90625 20.125 
Q 57.90625 9.515625 50.796875 4.046875 
Q 43.703125 -1.421875 29.984375 -1.421875 
Q 24.8125 -1.421875 18.96875 -0.25 
Q 13.140625 0.921875 6.890625 3.21875 
L 6.890625 13.375 
Q 12.890625 10.015625 18.65625 8.296875 
Q 24.421875 6.59375 29.984375 6.59375 
Q 38.421875 6.59375 43.015625 9.90625 
Q 47.609375 13.234375 47.609375 19.390625 
Q 47.609375 24.75 44.3125 27.78125 
Q 41.015625 30.8125 33.5 32.328125 
L 27.484375 33.5 
Q 16.453125 35.6875 11.515625 40.375 
Q 6.59375 45.0625 6.59375 53.421875 
Q 6.59375 63.09375 13.40625 68.65625 
Q 20.21875 74.21875 32.171875 74.21875 
Q 37.3125 74.21875 42.625 73.28125 
Q 47.953125 72.359375 53.515625 70.515625 
z
" id="DejaVuSans-83"/>
      <path d="M 9.421875 75.984375 
L 18.40625 75.984375 
L 18.40625 0 
L 9.421875 0 
z
" id="DejaVuSans-108"/>
      <path d="M 25.390625 72.90625 
L 33.6875 72.90625 
L 8.296875 -9.28125 
L 0 -9.28125 
z
" id="DejaVuSans-47"/>
      <path d="M 52 44.1875 
Q 55.375 50.25 60.0625 53.125 
Q 64.75 56 71.09375 56 
Q 79.640625 56 84.28125 50.015625 
Q 88.921875 44.046875 88.921875 33.015625 
L 88.921875 0 
L 79.890625 0 
L 79.890625 32.71875 
Q 79.890625 40.578125 77.09375 44.375 
Q 74.3125 48.1875 68.609375 48.1875 
Q 61.625 48.1875 57.5625 43.546875 
Q 53.515625 38.921875 53.515625 30.90625 
L 53.515625 0 
L 44.484375 0 
L 44.484375 32.71875 
Q 44.484375 40.625 41.703125 44.40625 
Q 38.921875 48.1875 33.109375 48.1875 
Q 26.21875 48.1875 22.15625 43.53125 
Q 18.109375 38.875 18.109375 30.90625 
L 18.109375 0 
L 9.078125 0 
L 9.078125 54.6875 
L 18.109375 54.6875 
L 18.109375 46.1875 
Q 21.1875 51.21875 25.484375 53.609375 
Q 29.78125 56 35.6875 56 
Q 41.65625 56 45.828125 52.96875 
Q 50 49.953125 52 44.1875 
z
" id="DejaVuSans-109"/>
      <path d="M 10.6875 12.40625 
L 21 12.40625 
L 21 0 
L 10.6875 0 
z
" id="DejaVuSans-46"/>
      <path d="M 9.8125 72.90625 
L 19.671875 72.90625 
L 19.671875 8.296875 
L 55.171875 8.296875 
L 55.171875 0 
L 9.8125 0 
z
" id="DejaVuSans-76"/>
      <path d="M 10.59375 35.5 
L 73.1875 35.5 
L 73.1875 27.203125 
L 10.59375 27.203125 
z
" id="DejaVuSans-8722"/>
     </defs>
     <g transform="translate(214.29 415.037812)scale(0.14 -0.14)">
      <use transform="translate(0 0.684375)" xlink:href="#DejaVuSans-67"/>
      <use transform="translate(69.824219 0.684375)" xlink:href="#DejaVuSans-111"/>
      <use transform="translate(131.005859 0.684375)" xlink:href="#DejaVuSans-110"/>
      <use transform="translate(194.384766 0.684375)" xlink:href="#DejaVuSans-99"/>
      <use transform="translate(249.365234 0.684375)" xlink:href="#DejaVuSans-101"/>
      <use transform="translate(310.888672 0.684375)" xlink:href="#DejaVuSans-110"/>
      <use transform="translate(374.267578 0.684375)" xlink:href="#DejaVuSans-116"/>
      <use transform="translate(413.476562 0.684375)" xlink:href="#DejaVuSans-114"/>
      <use transform="translate(454.589844 0.684375)" xlink:href="#DejaVuSans-97"/>
      <use transform="translate(515.869141 0.684375)" xlink:href="#DejaVuSans-231"/>
      <use transform="translate(570.849609 0.684375)" xlink:href="#DejaVuSans-227"/>
      <use transform="translate(632.128906 0.684375)" xlink:href="#DejaVuSans-111"/>
      <use transform="translate(693.310547 0.684375)" xlink:href="#DejaVuSans-32"/>
      <use transform="translate(725.097656 0.684375)" xlink:href="#DejaVuSans-100"/>
      <use transform="translate(788.574219 0.684375)" xlink:href="#DejaVuSans-101"/>
      <use transform="translate(850.097656 0.684375)" xlink:href="#DejaVuSans-32"/>
      <use transform="translate(881.884766 0.684375)" xlink:href="#DejaVuSans-78"/>
      <use transform="translate(956.689453 0.684375)" xlink:href="#DejaVuSans-97"/>
      <use transform="translate(1017.96875 0.684375)" xlink:href="#DejaVuSans-83"/>
      <use transform="translate(1081.445312 0.684375)" xlink:href="#DejaVuSans-97"/>
      <use transform="translate(1142.724609 0.684375)" xlink:href="#DejaVuSans-108"/>
      <use transform="translate(1170.507812 0.684375)" xlink:href="#DejaVuSans-47"/>
      <use transform="translate(1204.199219 0.684375)" xlink:href="#DejaVuSans-109"/>
      <use transform="translate(1301.611328 0.684375)" xlink:href="#DejaVuSans-109"/>
      <use transform="translate(1399.023438 0.684375)" xlink:href="#DejaVuSans-111"/>
      <use transform="translate(1460.205078 0.684375)" xlink:href="#DejaVuSans-108"/>
      <use transform="translate(1487.988281 0.684375)" xlink:href="#DejaVuSans-46"/>
      <use transform="translate(1519.775391 0.684375)" xlink:href="#DejaVuSans-76"/>
      <use transform="translate(1576.445312 38.965625)scale(0.7)" xlink:href="#DejaVuSans-8722"/>
      <use transform="translate(1635.097656 38.965625)scale(0.7)" xlink:href="#DejaVuSans-49"/>
     </g>
    </g>
   </g>
   <g id="matplotlib.axis_2">
    <g id="ytick_1">
     <g id="line2d_14">
      <defs>
       <path d="M 0 0 
L -3.5 0 
" id="mf8ec01ab92" style="stroke:#000000;stroke-width:0.8;"/>
      </defs>
      <g>
       <use style="stroke:#000000;stroke-width:0.8;" x="81" xlink:href="#mf8ec01ab92" y="378"/>
      </g>
     </g>
     <g id="text_3">
      <!-- $\mathdefault{10^{-2}}$ -->
      <g transform="translate(41.1 383.318906)scale(0.14 -0.14)">
       <use transform="translate(0 0.765625)" xlink:href="#DejaVuSans-49"/>
       <use transform="translate(63.623047 0.765625)" xlink:href="#DejaVuSans-48"/>
       <use transform="translate(128.203125 39.046875)scale(0.7)" xlink:href="#DejaVuSans-8722"/>
       <use transform="translate(186.855469 39.046875)scale(0.7)" xlink:href="#DejaVuSans-50"/>
      </g>
     </g>
    </g>
    <g id="ytick_2">
     <g id="line2d_15">
      <g>
       <use style="stroke:#000000;stroke-width:0.8;" x="81" xlink:href="#mf8ec01ab92" y="318.450469"/>
      </g>
     </g>
     <g id="text_4">
      <!-- $\mathdefault{10^{-1}}$ -->
      <g transform="translate(41.1 323.769376)scale(0.14 -0.14)">
       <use transform="translate(0 0.684375)" xlink:href="#DejaVuSans-49"/>
       <use transform="translate(63.623047 0.684375)" xlink:href="#DejaVuSans-48"/>
       <use transform="translate(128.203125 38.965625)scale(0.7)" xlink:href="#DejaVuSans-8722"/>
       <use transform="translate(186.855469 38.965625)scale(0.7)" xlink:href="#DejaVuSans-49"/>
      </g>
     </g>
    </g>
    <g id="ytick_3">
     <g id="line2d_16">
      <g>
       <use style="stroke:#000000;stroke-width:0.8;" x="81" xlink:href="#mf8ec01ab92" y="258.900939"/>
      </g>
     </g>
     <g id="text_5">
      <!-- $\mathdefault{10^{0}}$ -->
      <g transform="translate(49.36 264.219845)scale(0.14 -0.14)">
       <use transform="translate(0 0.765625)" xlink:href="#DejaVuSans-49"/>
       <use transform="translate(63.623047 0.765625)" xlink:href="#DejaVuSans-48"/>
       <use transform="translate(128.203125 39.046875)scale(0.7)" xlink:href="#DejaVuSans-48"/>
      </g>
     </g>
    </g>
    <g id="ytick_4">
     <g id="line2d_17">
      <g>
       <use style="stroke:#000000;stroke-width:0.8;" x="81" xlink:href="#mf8ec01ab92" y="199.351408"/>
      </g>
     </g>
     <g id="text_6">
      <!-- $\mathdefault{10^{1}}$ -->
      <g transform="translate(49.36 204.670314)scale(0.14 -0.14)">
       <use transform="translate(0 0.684375)" xlink:href="#DejaVuSans-49"/>
       <use transform="translate(63.623047 0.684375)" xlink:href="#DejaVuSans-48"/>
       <use transform="translate(128.203125 38.965625)scale(0.7)" xlink:href="#DejaVuSans-49"/>
      </g>
     </g>
    </g>
    <g id="ytick_5">
     <g id="line2d_18">
      <g>
       <use style="stroke:#000000;stroke-width:0.8;" x="81" xlink:href="#mf8ec01ab92" y="139.801877"/>
      </g>
     </g>
     <g id="text_7">
      <!-- $\mathdefault{10^{2}}$ -->
      <g transform="translate(49.36 145.120784)scale(0.14 -0.14)">
       <use transform="translate(0 0.765625)" xlink:href="#DejaVuSans-49"/>
       <use transform="translate(63.623047 0.765625)" xlink:href="#DejaVuSans-48"/>
       <use transform="translate(128.203125 39.046875)scale(0.7)" xlink:href="#DejaVuSans-50"/>
      </g>
     </g>
    </g>
    <g id="ytick_6">
     <g id="line2d_19">
      <g>
       <use style="stroke:#000000;stroke-width:0.8;" x="81" xlink:href="#mf8ec01ab92" y="80.252347"/>
      </g>
     </g>
     <g id="text_8">
      <!-- $\mathdefault{10^{3}}$ -->
      <defs>
       <path d="M 40.578125 39.3125 
Q 47.65625 37.796875 51.625 33 
Q 55.609375 28.21875 55.609375 21.1875 
Q 55.609375 10.40625 48.1875 4.484375 
Q 40.765625 -1.421875 27.09375 -1.421875 
Q 22.515625 -1.421875 17.65625 -0.515625 
Q 12.796875 0.390625 7.625 2.203125 
L 7.625 11.71875 
Q 11.71875 9.328125 16.59375 8.109375 
Q 21.484375 6.890625 26.8125 6.890625 
Q 36.078125 6.890625 40.9375 10.546875 
Q 45.796875 14.203125 45.796875 21.1875 
Q 45.796875 27.640625 41.28125 31.265625 
Q 36.765625 34.90625 28.71875 34.90625 
L 20.21875 34.90625 
L 20.21875 43.015625 
L 29.109375 43.015625 
Q 36.375 43.015625 40.234375 45.921875 
Q 44.09375 48.828125 44.09375 54.296875 
Q 44.09375 59.90625 40.109375 62.90625 
Q 36.140625 65.921875 28.71875 65.921875 
Q 24.65625 65.921875 20.015625 65.03125 
Q 15.375 64.15625 9.8125 62.3125 
L 9.8125 71.09375 
Q 15.4375 72.65625 20.34375 73.4375 
Q 25.25 74.21875 29.59375 74.21875 
Q 40.828125 74.21875 47.359375 69.109375 
Q 53.90625 64.015625 53.90625 55.328125 
Q 53.90625 49.265625 50.4375 45.09375 
Q 46.96875 40.921875 40.578125 39.3125 
z
" id="DejaVuSans-51"/>
      </defs>
      <g transform="translate(49.36 85.571253)scale(0.14 -0.14)">
       <use transform="translate(0 0.765625)" xlink:href="#DejaVuSans-49"/>
       <use transform="translate(63.623047 0.765625)" xlink:href="#DejaVuSans-48"/>
       <use transform="translate(128.203125 39.046875)scale(0.7)" xlink:href="#DejaVuSans-51"/>
      </g>
     </g>
    </g>
    <g id="ytick_7">
     <g id="line2d_20">
      <defs>
       <path d="M 0 0 
L -2 0 
" id="mbd8dba3882" style="stroke:#000000;stroke-width:0.6;"/>
      </defs>
      <g>
       <use style="stroke:#000000;stroke-width:0.6;" x="81" xlink:href="#mbd8dba3882" y="360.073805"/>
      </g>
     </g>
    </g>
    <g id="ytick_8">
     <g id="line2d_21">
      <g>
       <use style="stroke:#000000;stroke-width:0.6;" x="81" xlink:href="#mbd8dba3882" y="349.587653"/>
      </g>
     </g>
    </g>
    <g id="ytick_9">
     <g id="line2d_22">
      <g>
       <use style="stroke:#000000;stroke-width:0.6;" x="81" xlink:href="#mbd8dba3882" y="342.14761"/>
      </g>
     </g>
    </g>
    <g id="ytick_10">
     <g id="line2d_23">
      <g>
       <use style="stroke:#000000;stroke-width:0.6;" x="81" xlink:href="#mbd8dba3882" y="336.376664"/>
      </g>
     </g>
    </g>
    <g id="ytick_11">
     <g id="line2d_24">
      <g>
       <use style="stroke:#000000;stroke-width:0.6;" x="81" xlink:href="#mbd8dba3882" y="331.661458"/>
      </g>
     </g>
    </g>
    <g id="ytick_12">
     <g id="line2d_25">
      <g>
       <use style="stroke:#000000;stroke-width:0.6;" x="81" xlink:href="#mbd8dba3882" y="327.674808"/>
      </g>
     </g>
    </g>
    <g id="ytick_13">
     <g id="line2d_26">
      <g>
       <use style="stroke:#000000;stroke-width:0.6;" x="81" xlink:href="#mbd8dba3882" y="324.221415"/>
      </g>
     </g>
    </g>
    <g id="ytick_14">
     <g id="line2d_27">
      <g>
       <use style="stroke:#000000;stroke-width:0.6;" x="81" xlink:href="#mbd8dba3882" y="321.175306"/>
      </g>
     </g>
    </g>
    <g id="ytick_15">
     <g id="line2d_28">
      <g>
       <use style="stroke:#000000;stroke-width:0.6;" x="81" xlink:href="#mbd8dba3882" y="300.524274"/>
      </g>
     </g>
    </g>
    <g id="ytick_16">
     <g id="line2d_29">
      <g>
       <use style="stroke:#000000;stroke-width:0.6;" x="81" xlink:href="#mbd8dba3882" y="290.038123"/>
      </g>
     </g>
    </g>
    <g id="ytick_17">
     <g id="line2d_30">
      <g>
       <use style="stroke:#000000;stroke-width:0.6;" x="81" xlink:href="#mbd8dba3882" y="282.598079"/>
      </g>
     </g>
    </g>
    <g id="ytick_18">
     <g id="line2d_31">
      <g>
       <use style="stroke:#000000;stroke-width:0.6;" x="81" xlink:href="#mbd8dba3882" y="276.827134"/>
      </g>
     </g>
    </g>
    <g id="ytick_19">
     <g id="line2d_32">
      <g>
       <use style="stroke:#000000;stroke-width:0.6;" x="81" xlink:href="#mbd8dba3882" y="272.111928"/>
      </g>
     </g>
    </g>
    <g id="ytick_20">
     <g id="line2d_33">
      <g>
       <use style="stroke:#000000;stroke-width:0.6;" x="81" xlink:href="#mbd8dba3882" y="268.125278"/>
      </g>
     </g>
    </g>
    <g id="ytick_21">
     <g id="line2d_34">
      <g>
       <use style="stroke:#000000;stroke-width:0.6;" x="81" xlink:href="#mbd8dba3882" y="264.671885"/>
      </g>
     </g>
    </g>
    <g id="ytick_22">
     <g id="line2d_35">
      <g>
       <use style="stroke:#000000;stroke-width:0.6;" x="81" xlink:href="#mbd8dba3882" y="261.625776"/>
      </g>
     </g>
    </g>
    <g id="ytick_23">
     <g id="line2d_36">
      <g>
       <use style="stroke:#000000;stroke-width:0.6;" x="81" xlink:href="#mbd8dba3882" y="240.974744"/>
      </g>
     </g>
    </g>
    <g id="ytick_24">
     <g id="line2d_37">
      <g>
       <use style="stroke:#000000;stroke-width:0.6;" x="81" xlink:href="#mbd8dba3882" y="230.488592"/>
      </g>
     </g>
    </g>
    <g id="ytick_25">
     <g id="line2d_38">
      <g>
       <use style="stroke:#000000;stroke-width:0.6;" x="81" xlink:href="#mbd8dba3882" y="223.048549"/>
      </g>
     </g>
    </g>
    <g id="ytick_26">
     <g id="line2d_39">
      <g>
       <use style="stroke:#000000;stroke-width:0.6;" x="81" xlink:href="#mbd8dba3882" y="217.277603"/>
      </g>
     </g>
    </g>
    <g id="ytick_27">
     <g id="line2d_40">
      <g>
       <use style="stroke:#000000;stroke-width:0.6;" x="81" xlink:href="#mbd8dba3882" y="212.562397"/>
      </g>
     </g>
    </g>
    <g id="ytick_28">
     <g id="line2d_41">
      <g>
       <use style="stroke:#000000;stroke-width:0.6;" x="81" xlink:href="#mbd8dba3882" y="208.575747"/>
      </g>
     </g>
    </g>
    <g id="ytick_29">
     <g id="line2d_42">
      <g>
       <use style="stroke:#000000;stroke-width:0.6;" x="81" xlink:href="#mbd8dba3882" y="205.122354"/>
      </g>
     </g>
    </g>
    <g id="ytick_30">
     <g id="line2d_43">
      <g>
       <use style="stroke:#000000;stroke-width:0.6;" x="81" xlink:href="#mbd8dba3882" y="202.076245"/>
      </g>
     </g>
    </g>
    <g id="ytick_31">
     <g id="line2d_44">
      <g>
       <use style="stroke:#000000;stroke-width:0.6;" x="81" xlink:href="#mbd8dba3882" y="181.425213"/>
      </g>
     </g>
    </g>
    <g id="ytick_32">
     <g id="line2d_45">
      <g>
       <use style="stroke:#000000;stroke-width:0.6;" x="81" xlink:href="#mbd8dba3882" y="170.939061"/>
      </g>
     </g>
    </g>
    <g id="ytick_33">
     <g id="line2d_46">
      <g>
       <use style="stroke:#000000;stroke-width:0.6;" x="81" xlink:href="#mbd8dba3882" y="163.499018"/>
      </g>
     </g>
    </g>
    <g id="ytick_34">
     <g id="line2d_47">
      <g>
       <use style="stroke:#000000;stroke-width:0.6;" x="81" xlink:href="#mbd8dba3882" y="157.728072"/>
      </g>
     </g>
    </g>
    <g id="ytick_35">
     <g id="line2d_48">
      <g>
       <use style="stroke:#000000;stroke-width:0.6;" x="81" xlink:href="#mbd8dba3882" y="153.012866"/>
      </g>
     </g>
    </g>
    <g id="ytick_36">
     <g id="line2d_49">
      <g>
       <use style="stroke:#000000;stroke-width:0.6;" x="81" xlink:href="#mbd8dba3882" y="149.026216"/>
      </g>
     </g>
    </g>
    <g id="ytick_37">
     <g id="line2d_50">
      <g>
       <use style="stroke:#000000;stroke-width:0.6;" x="81" xlink:href="#mbd8dba3882" y="145.572823"/>
      </g>
     </g>
    </g>
    <g id="ytick_38">
     <g id="line2d_51">
      <g>
       <use style="stroke:#000000;stroke-width:0.6;" x="81" xlink:href="#mbd8dba3882" y="142.526715"/>
      </g>
     </g>
    </g>
    <g id="ytick_39">
     <g id="line2d_52">
      <g>
       <use style="stroke:#000000;stroke-width:0.6;" x="81" xlink:href="#mbd8dba3882" y="121.875682"/>
      </g>
     </g>
    </g>
    <g id="ytick_40">
     <g id="line2d_53">
      <g>
       <use style="stroke:#000000;stroke-width:0.6;" x="81" xlink:href="#mbd8dba3882" y="111.389531"/>
      </g>
     </g>
    </g>
    <g id="ytick_41">
     <g id="line2d_54">
      <g>
       <use style="stroke:#000000;stroke-width:0.6;" x="81" xlink:href="#mbd8dba3882" y="103.949488"/>
      </g>
     </g>
    </g>
    <g id="ytick_42">
     <g id="line2d_55">
      <g>
       <use style="stroke:#000000;stroke-width:0.6;" x="81" xlink:href="#mbd8dba3882" y="98.178542"/>
      </g>
     </g>
    </g>
    <g id="ytick_43">
     <g id="line2d_56">
      <g>
       <use style="stroke:#000000;stroke-width:0.6;" x="81" xlink:href="#mbd8dba3882" y="93.463336"/>
      </g>
     </g>
    </g>
    <g id="ytick_44">
     <g id="line2d_57">
      <g>
       <use style="stroke:#000000;stroke-width:0.6;" x="81" xlink:href="#mbd8dba3882" y="89.476686"/>
      </g>
     </g>
    </g>
    <g id="ytick_45">
     <g id="line2d_58">
      <g>
       <use style="stroke:#000000;stroke-width:0.6;" x="81" xlink:href="#mbd8dba3882" y="86.023293"/>
      </g>
     </g>
    </g>
    <g id="ytick_46">
     <g id="line2d_59">
      <g>
       <use style="stroke:#000000;stroke-width:0.6;" x="81" xlink:href="#mbd8dba3882" y="82.977184"/>
      </g>
     </g>
    </g>
    <g id="ytick_47">
     <g id="line2d_60">
      <g>
       <use style="stroke:#000000;stroke-width:0.6;" x="81" xlink:href="#mbd8dba3882" y="62.326152"/>
      </g>
     </g>
    </g>
    <g id="ytick_48">
     <g id="line2d_61">
      <g>
       <use style="stroke:#000000;stroke-width:0.6;" x="81" xlink:href="#mbd8dba3882" y="51.84"/>
      </g>
     </g>
    </g>
    <g id="text_9">
     <!-- Viscosidade/Pa.s -->
     <defs>
      <path d="M 28.609375 0 
L 0.78125 72.90625 
L 11.078125 72.90625 
L 34.1875 11.53125 
L 57.328125 72.90625 
L 67.578125 72.90625 
L 39.796875 0 
z
" id="DejaVuSans-86"/>
      <path d="M 9.421875 54.6875 
L 18.40625 54.6875 
L 18.40625 0 
L 9.421875 0 
z
M 9.421875 75.984375 
L 18.40625 75.984375 
L 18.40625 64.59375 
L 9.421875 64.59375 
z
" id="DejaVuSans-105"/>
      <path d="M 44.28125 53.078125 
L 44.28125 44.578125 
Q 40.484375 46.53125 36.375 47.5 
Q 32.28125 48.484375 27.875 48.484375 
Q 21.1875 48.484375 17.84375 46.4375 
Q 14.5 44.390625 14.5 40.28125 
Q 14.5 37.15625 16.890625 35.375 
Q 19.28125 33.59375 26.515625 31.984375 
L 29.59375 31.296875 
Q 39.15625 29.25 43.1875 25.515625 
Q 47.21875 21.78125 47.21875 15.09375 
Q 47.21875 7.46875 41.1875 3.015625 
Q 35.15625 -1.421875 24.609375 -1.421875 
Q 20.21875 -1.421875 15.453125 -0.5625 
Q 10.6875 0.296875 5.421875 2 
L 5.421875 11.28125 
Q 10.40625 8.6875 15.234375 7.390625 
Q 20.0625 6.109375 24.8125 6.109375 
Q 31.15625 6.109375 34.5625 8.28125 
Q 37.984375 10.453125 37.984375 14.40625 
Q 37.984375 18.0625 35.515625 20.015625 
Q 33.0625 21.96875 24.703125 23.78125 
L 21.578125 24.515625 
Q 13.234375 26.265625 9.515625 29.90625 
Q 5.8125 33.546875 5.8125 39.890625 
Q 5.8125 47.609375 11.28125 51.796875 
Q 16.75 56 26.8125 56 
Q 31.78125 56 36.171875 55.265625 
Q 40.578125 54.546875 44.28125 53.078125 
z
" id="DejaVuSans-115"/>
      <path d="M 19.671875 64.796875 
L 19.671875 37.40625 
L 32.078125 37.40625 
Q 38.96875 37.40625 42.71875 40.96875 
Q 46.484375 44.53125 46.484375 51.125 
Q 46.484375 57.671875 42.71875 61.234375 
Q 38.96875 64.796875 32.078125 64.796875 
z
M 9.8125 72.90625 
L 32.078125 72.90625 
Q 44.34375 72.90625 50.609375 67.359375 
Q 56.890625 61.8125 56.890625 51.125 
Q 56.890625 40.328125 50.609375 34.8125 
Q 44.34375 29.296875 32.078125 29.296875 
L 19.671875 29.296875 
L 19.671875 0 
L 9.8125 0 
z
" id="DejaVuSans-80"/>
     </defs>
     <g transform="translate(34.188437 273.240937)rotate(-90)scale(0.14 -0.14)">
      <use xlink:href="#DejaVuSans-86"/>
      <use x="68.376953" xlink:href="#DejaVuSans-105"/>
      <use x="96.160156" xlink:href="#DejaVuSans-115"/>
      <use x="148.259766" xlink:href="#DejaVuSans-99"/>
      <use x="203.240234" xlink:href="#DejaVuSans-111"/>
      <use x="264.421875" xlink:href="#DejaVuSans-115"/>
      <use x="316.521484" xlink:href="#DejaVuSans-105"/>
      <use x="344.304688" xlink:href="#DejaVuSans-100"/>
      <use x="407.78125" xlink:href="#DejaVuSans-97"/>
      <use x="469.060547" xlink:href="#DejaVuSans-100"/>
      <use x="532.537109" xlink:href="#DejaVuSans-101"/>
      <use x="594.060547" xlink:href="#DejaVuSans-47"/>
      <use x="627.751953" xlink:href="#DejaVuSans-80"/>
      <use x="687.992188" xlink:href="#DejaVuSans-97"/>
      <use x="749.271484" xlink:href="#DejaVuSans-46"/>
      <use x="781.058594" xlink:href="#DejaVuSans-115"/>
     </g>
    </g>
   </g>
   <g id="line2d_62">
    <path clip-path="url(#p19085c8f59)" d="M 121.055996 222.850174 
L 150.2922 114.691026 
L 175.043634 81.536829 
L 201.919722 74.053837 
L 226.368867 81.966778 
L 250.856246 113.034961 
L 274.730634 169.308705 
L 298.792286 199.638513 
L 324.393621 209.115201 
L 349.155932 201.392268 
L 374.315028 186.5918 
L 399.131238 168.977604 
L 424.382333 149.674583 
L 447.976826 139.239739 
L 472.944623 143.498121 
L 498.452903 167.020777 
" style="fill:none;stroke:#ff0000;stroke-linecap:square;stroke-opacity:0.7;stroke-width:1.5;"/>
    <defs>
     <path d="M 0 5 
C 1.326016 5 2.597899 4.473168 3.535534 3.535534 
C 4.473168 2.597899 5 1.326016 5 0 
C 5 -1.326016 4.473168 -2.597899 3.535534 -3.535534 
C 2.597899 -4.473168 1.326016 -5 0 -5 
C -1.326016 -5 -2.597899 -4.473168 -3.535534 -3.535534 
C -4.473168 -2.597899 -5 -1.326016 -5 0 
C -5 1.326016 -4.473168 2.597899 -3.535534 3.535534 
C -2.597899 4.473168 -1.326016 5 0 5 
z
" id="m2d67dce77f" style="stroke:#ff0000;stroke-opacity:0.7;"/>
    </defs>
    <g clip-path="url(#p19085c8f59)">
     <use style="fill:#ff0000;fill-opacity:0.7;stroke:#ff0000;stroke-opacity:0.7;" x="121.055996" xlink:href="#m2d67dce77f" y="222.850174"/>
     <use style="fill:#ff0000;fill-opacity:0.7;stroke:#ff0000;stroke-opacity:0.7;" x="150.2922" xlink:href="#m2d67dce77f" y="114.691026"/>
     <use style="fill:#ff0000;fill-opacity:0.7;stroke:#ff0000;stroke-opacity:0.7;" x="175.043634" xlink:href="#m2d67dce77f" y="81.536829"/>
     <use style="fill:#ff0000;fill-opacity:0.7;stroke:#ff0000;stroke-opacity:0.7;" x="201.919722" xlink:href="#m2d67dce77f" y="74.053837"/>
     <use style="fill:#ff0000;fill-opacity:0.7;stroke:#ff0000;stroke-opacity:0.7;" x="226.368867" xlink:href="#m2d67dce77f" y="81.966778"/>
     <use style="fill:#ff0000;fill-opacity:0.7;stroke:#ff0000;stroke-opacity:0.7;" x="250.856246" xlink:href="#m2d67dce77f" y="113.034961"/>
     <use style="fill:#ff0000;fill-opacity:0.7;stroke:#ff0000;stroke-opacity:0.7;" x="274.730634" xlink:href="#m2d67dce77f" y="169.308705"/>
     <use style="fill:#ff0000;fill-opacity:0.7;stroke:#ff0000;stroke-opacity:0.7;" x="298.792286" xlink:href="#m2d67dce77f" y="199.638513"/>
     <use style="fill:#ff0000;fill-opacity:0.7;stroke:#ff0000;stroke-opacity:0.7;" x="324.393621" xlink:href="#m2d67dce77f" y="209.115201"/>
     <use style="fill:#ff0000;fill-opacity:0.7;stroke:#ff0000;stroke-opacity:0.7;" x="349.155932" xlink:href="#m2d67dce77f" y="201.392268"/>
     <use style="fill:#ff0000;fill-opacity:0.7;stroke:#ff0000;stroke-opacity:0.7;" x="374.315028" xlink:href="#m2d67dce77f" y="186.5918"/>
     <use style="fill:#ff0000;fill-opacity:0.7;stroke:#ff0000;stroke-opacity:0.7;" x="399.131238" xlink:href="#m2d67dce77f" y="168.977604"/>
     <use style="fill:#ff0000;fill-opacity:0.7;stroke:#ff0000;stroke-opacity:0.7;" x="424.382333" xlink:href="#m2d67dce77f" y="149.674583"/>
     <use style="fill:#ff0000;fill-opacity:0.7;stroke:#ff0000;stroke-opacity:0.7;" x="447.976826" xlink:href="#m2d67dce77f" y="139.239739"/>
     <use style="fill:#ff0000;fill-opacity:0.7;stroke:#ff0000;stroke-opacity:0.7;" x="472.944623" xlink:href="#m2d67dce77f" y="143.498121"/>
     <use style="fill:#ff0000;fill-opacity:0.7;stroke:#ff0000;stroke-opacity:0.7;" x="498.452903" xlink:href="#m2d67dce77f" y="167.020777"/>
    </g>
   </g>
   <g id="line2d_63">
    <path clip-path="url(#p19085c8f59)" d="M 150.928046 201.523854 
L 178.449075 128.831072 
L 200.245573 109.147564 
L 227.23237 102.768021 
L 252.092585 126.880232 
L 276.658057 168.037879 
L 298.839943 192.097724 
L 324.008762 204.768536 
L 350.620751 202.303389 
L 374.815529 195.859509 
L 399.144814 183.22956 
L 422.004919 174.860506 
L 448.609364 173.083488 
L 473.098198 184.342575 
L 498.108901 203.444873 
" style="fill:none;stroke:#00bfff;stroke-linecap:square;stroke-opacity:0.7;stroke-width:1.5;"/>
    <defs>
     <path d="M -5 -0 
L 5 5 
L 5 -5 
z
" id="m997827c6fd" style="stroke:#00bfff;stroke-linejoin:miter;stroke-opacity:0.7;"/>
    </defs>
    <g clip-path="url(#p19085c8f59)">
     <use style="fill:#00bfff;fill-opacity:0.7;stroke:#00bfff;stroke-linejoin:miter;stroke-opacity:0.7;" x="150.928046" xlink:href="#m997827c6fd" y="201.523854"/>
     <use style="fill:#00bfff;fill-opacity:0.7;stroke:#00bfff;stroke-linejoin:miter;stroke-opacity:0.7;" x="178.449075" xlink:href="#m997827c6fd" y="128.831072"/>
     <use style="fill:#00bfff;fill-opacity:0.7;stroke:#00bfff;stroke-linejoin:miter;stroke-opacity:0.7;" x="200.245573" xlink:href="#m997827c6fd" y="109.147564"/>
     <use style="fill:#00bfff;fill-opacity:0.7;stroke:#00bfff;stroke-linejoin:miter;stroke-opacity:0.7;" x="227.23237" xlink:href="#m997827c6fd" y="102.768021"/>
     <use style="fill:#00bfff;fill-opacity:0.7;stroke:#00bfff;stroke-linejoin:miter;stroke-opacity:0.7;" x="252.092585" xlink:href="#m997827c6fd" y="126.880232"/>
     <use style="fill:#00bfff;fill-opacity:0.7;stroke:#00bfff;stroke-linejoin:miter;stroke-opacity:0.7;" x="276.658057" xlink:href="#m997827c6fd" y="168.037879"/>
     <use style="fill:#00bfff;fill-opacity:0.7;stroke:#00bfff;stroke-linejoin:miter;stroke-opacity:0.7;" x="298.839943" xlink:href="#m997827c6fd" y="192.097724"/>
     <use style="fill:#00bfff;fill-opacity:0.7;stroke:#00bfff;stroke-linejoin:miter;stroke-opacity:0.7;" x="324.008762" xlink:href="#m997827c6fd" y="204.768536"/>
     <use style="fill:#00bfff;fill-opacity:0.7;stroke:#00bfff;stroke-linejoin:miter;stroke-opacity:0.7;" x="350.620751" xlink:href="#m997827c6fd" y="202.303389"/>
     <use style="fill:#00bfff;fill-opacity:0.7;stroke:#00bfff;stroke-linejoin:miter;stroke-opacity:0.7;" x="374.815529" xlink:href="#m997827c6fd" y="195.859509"/>
     <use style="fill:#00bfff;fill-opacity:0.7;stroke:#00bfff;stroke-linejoin:miter;stroke-opacity:0.7;" x="399.144814" xlink:href="#m997827c6fd" y="183.22956"/>
     <use style="fill:#00bfff;fill-opacity:0.7;stroke:#00bfff;stroke-linejoin:miter;stroke-opacity:0.7;" x="422.004919" xlink:href="#m997827c6fd" y="174.860506"/>
     <use style="fill:#00bfff;fill-opacity:0.7;stroke:#00bfff;stroke-linejoin:miter;stroke-opacity:0.7;" x="448.609364" xlink:href="#m997827c6fd" y="173.083488"/>
     <use style="fill:#00bfff;fill-opacity:0.7;stroke:#00bfff;stroke-linejoin:miter;stroke-opacity:0.7;" x="473.098198" xlink:href="#m997827c6fd" y="184.342575"/>
     <use style="fill:#00bfff;fill-opacity:0.7;stroke:#00bfff;stroke-linejoin:miter;stroke-opacity:0.7;" x="498.108901" xlink:href="#m997827c6fd" y="203.444873"/>
    </g>
   </g>
   <g id="line2d_64">
    <path clip-path="url(#p19085c8f59)" d="M 151.806482 202.165479 
L 171.308264 170.528544 
L 196.115287 133.156238 
L 220.476858 124.77351 
L 246.0101 129.419381 
L 264.931027 130.103463 
L 289.417933 178.195847 
L 315.647453 189.335013 
L 335.541796 195.224744 
L 359.883038 196.236426 
L 381.216956 192.230131 
L 403.008899 184.178802 
L 426.217885 178.505851 
L 449.953841 179.363105 
L 471.566386 189.299922 
L 495.97732 205.061004 
L 517.719276 226.83661 
L 539.173744 241.97666 
L 564.22735 281.770933 
" style="fill:none;stroke:#0000ff;stroke-linecap:square;stroke-opacity:0.7;stroke-width:1.5;"/>
    <defs>
     <path d="M -5 -0 
L 5 5 
L 5 -5 
z
" id="m044bd53108" style="stroke:#0000ff;stroke-linejoin:miter;stroke-opacity:0.7;"/>
    </defs>
    <g clip-path="url(#p19085c8f59)">
     <use style="fill:#0000ff;fill-opacity:0.7;stroke:#0000ff;stroke-linejoin:miter;stroke-opacity:0.7;" x="151.806482" xlink:href="#m044bd53108" y="202.165479"/>
     <use style="fill:#0000ff;fill-opacity:0.7;stroke:#0000ff;stroke-linejoin:miter;stroke-opacity:0.7;" x="171.308264" xlink:href="#m044bd53108" y="170.528544"/>
     <use style="fill:#0000ff;fill-opacity:0.7;stroke:#0000ff;stroke-linejoin:miter;stroke-opacity:0.7;" x="196.115287" xlink:href="#m044bd53108" y="133.156238"/>
     <use style="fill:#0000ff;fill-opacity:0.7;stroke:#0000ff;stroke-linejoin:miter;stroke-opacity:0.7;" x="220.476858" xlink:href="#m044bd53108" y="124.77351"/>
     <use style="fill:#0000ff;fill-opacity:0.7;stroke:#0000ff;stroke-linejoin:miter;stroke-opacity:0.7;" x="246.0101" xlink:href="#m044bd53108" y="129.419381"/>
     <use style="fill:#0000ff;fill-opacity:0.7;stroke:#0000ff;stroke-linejoin:miter;stroke-opacity:0.7;" x="264.931027" xlink:href="#m044bd53108" y="130.103463"/>
     <use style="fill:#0000ff;fill-opacity:0.7;stroke:#0000ff;stroke-linejoin:miter;stroke-opacity:0.7;" x="289.417933" xlink:href="#m044bd53108" y="178.195847"/>
     <use style="fill:#0000ff;fill-opacity:0.7;stroke:#0000ff;stroke-linejoin:miter;stroke-opacity:0.7;" x="315.647453" xlink:href="#m044bd53108" y="189.335013"/>
     <use style="fill:#0000ff;fill-opacity:0.7;stroke:#0000ff;stroke-linejoin:miter;stroke-opacity:0.7;" x="335.541796" xlink:href="#m044bd53108" y="195.224744"/>
     <use style="fill:#0000ff;fill-opacity:0.7;stroke:#0000ff;stroke-linejoin:miter;stroke-opacity:0.7;" x="359.883038" xlink:href="#m044bd53108" y="196.236426"/>
     <use style="fill:#0000ff;fill-opacity:0.7;stroke:#0000ff;stroke-linejoin:miter;stroke-opacity:0.7;" x="381.216956" xlink:href="#m044bd53108" y="192.230131"/>
     <use style="fill:#0000ff;fill-opacity:0.7;stroke:#0000ff;stroke-linejoin:miter;stroke-opacity:0.7;" x="403.008899" xlink:href="#m044bd53108" y="184.178802"/>
     <use style="fill:#0000ff;fill-opacity:0.7;stroke:#0000ff;stroke-linejoin:miter;stroke-opacity:0.7;" x="426.217885" xlink:href="#m044bd53108" y="178.505851"/>
     <use style="fill:#0000ff;fill-opacity:0.7;stroke:#0000ff;stroke-linejoin:miter;stroke-opacity:0.7;" x="449.953841" xlink:href="#m044bd53108" y="179.363105"/>
     <use style="fill:#0000ff;fill-opacity:0.7;stroke:#0000ff;stroke-linejoin:miter;stroke-opacity:0.7;" x="471.566386" xlink:href="#m044bd53108" y="189.299922"/>
     <use style="fill:#0000ff;fill-opacity:0.7;stroke:#0000ff;stroke-linejoin:miter;stroke-opacity:0.7;" x="495.97732" xlink:href="#m044bd53108" y="205.061004"/>
     <use style="fill:#0000ff;fill-opacity:0.7;stroke:#0000ff;stroke-linejoin:miter;stroke-opacity:0.7;" x="517.719276" xlink:href="#m044bd53108" y="226.83661"/>
     <use style="fill:#0000ff;fill-opacity:0.7;stroke:#0000ff;stroke-linejoin:miter;stroke-opacity:0.7;" x="539.173744" xlink:href="#m044bd53108" y="241.97666"/>
     <use style="fill:#0000ff;fill-opacity:0.7;stroke:#0000ff;stroke-linejoin:miter;stroke-opacity:0.7;" x="564.22735" xlink:href="#m044bd53108" y="281.770933"/>
    </g>
   </g>
   <g id="line2d_65">
    <path clip-path="url(#p19085c8f59)" d="M 195.46732 238.380841 
L 217.379146 189.813461 
L 240.787138 171.70015 
L 263.359375 157.210866 
L 287.117815 164.914194 
L 308.835375 175.592273 
L 333.362818 187.718642 
L 356.046508 193.497836 
L 379.849567 195.557593 
L 403.556155 201.614869 
L 426.28744 202.855096 
L 448.034224 207.668214 
L 471.446897 226.754401 
L 493.805194 234.925986 
L 517.221219 258.643603 
L 539.839207 274.31524 
L 562.977823 303.830305 
" style="fill:none;stroke:#bf00ff;stroke-linecap:square;stroke-opacity:0.7;stroke-width:1.5;"/>
    <defs>
     <path d="M -5 -0 
L 5 5 
L 5 -5 
z
" id="mb3a4965df7" style="stroke:#bf00ff;stroke-linejoin:miter;stroke-opacity:0.7;"/>
    </defs>
    <g clip-path="url(#p19085c8f59)">
     <use style="fill:#bf00ff;fill-opacity:0.7;stroke:#bf00ff;stroke-linejoin:miter;stroke-opacity:0.7;" x="195.46732" xlink:href="#mb3a4965df7" y="238.380841"/>
     <use style="fill:#bf00ff;fill-opacity:0.7;stroke:#bf00ff;stroke-linejoin:miter;stroke-opacity:0.7;" x="217.379146" xlink:href="#mb3a4965df7" y="189.813461"/>
     <use style="fill:#bf00ff;fill-opacity:0.7;stroke:#bf00ff;stroke-linejoin:miter;stroke-opacity:0.7;" x="240.787138" xlink:href="#mb3a4965df7" y="171.70015"/>
     <use style="fill:#bf00ff;fill-opacity:0.7;stroke:#bf00ff;stroke-linejoin:miter;stroke-opacity:0.7;" x="263.359375" xlink:href="#mb3a4965df7" y="157.210866"/>
     <use style="fill:#bf00ff;fill-opacity:0.7;stroke:#bf00ff;stroke-linejoin:miter;stroke-opacity:0.7;" x="287.117815" xlink:href="#mb3a4965df7" y="164.914194"/>
     <use style="fill:#bf00ff;fill-opacity:0.7;stroke:#bf00ff;stroke-linejoin:miter;stroke-opacity:0.7;" x="308.835375" xlink:href="#mb3a4965df7" y="175.592273"/>
     <use style="fill:#bf00ff;fill-opacity:0.7;stroke:#bf00ff;stroke-linejoin:miter;stroke-opacity:0.7;" x="333.362818" xlink:href="#mb3a4965df7" y="187.718642"/>
     <use style="fill:#bf00ff;fill-opacity:0.7;stroke:#bf00ff;stroke-linejoin:miter;stroke-opacity:0.7;" x="356.046508" xlink:href="#mb3a4965df7" y="193.497836"/>
     <use style="fill:#bf00ff;fill-opacity:0.7;stroke:#bf00ff;stroke-linejoin:miter;stroke-opacity:0.7;" x="379.849567" xlink:href="#mb3a4965df7" y="195.557593"/>
     <use style="fill:#bf00ff;fill-opacity:0.7;stroke:#bf00ff;stroke-linejoin:miter;stroke-opacity:0.7;" x="403.556155" xlink:href="#mb3a4965df7" y="201.614869"/>
     <use style="fill:#bf00ff;fill-opacity:0.7;stroke:#bf00ff;stroke-linejoin:miter;stroke-opacity:0.7;" x="426.28744" xlink:href="#mb3a4965df7" y="202.855096"/>
     <use style="fill:#bf00ff;fill-opacity:0.7;stroke:#bf00ff;stroke-linejoin:miter;stroke-opacity:0.7;" x="448.034224" xlink:href="#mb3a4965df7" y="207.668214"/>
     <use style="fill:#bf00ff;fill-opacity:0.7;stroke:#bf00ff;stroke-linejoin:miter;stroke-opacity:0.7;" x="471.446897" xlink:href="#mb3a4965df7" y="226.754401"/>
     <use style="fill:#bf00ff;fill-opacity:0.7;stroke:#bf00ff;stroke-linejoin:miter;stroke-opacity:0.7;" x="493.805194" xlink:href="#mb3a4965df7" y="234.925986"/>
     <use style="fill:#bf00ff;fill-opacity:0.7;stroke:#bf00ff;stroke-linejoin:miter;stroke-opacity:0.7;" x="517.221219" xlink:href="#mb3a4965df7" y="258.643603"/>
     <use style="fill:#bf00ff;fill-opacity:0.7;stroke:#bf00ff;stroke-linejoin:miter;stroke-opacity:0.7;" x="539.839207" xlink:href="#mb3a4965df7" y="274.31524"/>
     <use style="fill:#bf00ff;fill-opacity:0.7;stroke:#bf00ff;stroke-linejoin:miter;stroke-opacity:0.7;" x="562.977823" xlink:href="#mb3a4965df7" y="303.830305"/>
    </g>
   </g>
   <g id="line2d_66">
    <path clip-path="url(#p19085c8f59)" d="M 179.517802 332.762136 
L 200.408717 321.348297 
L 223.618709 253.421282 
L 248.686042 237.586087 
L 271.6402 220.980471 
L 296.572151 222.422566 
L 317.345162 220.088791 
L 340.625528 227.062152 
L 364.861554 233.003555 
L 388.826172 239.080338 
L 411.582435 244.11964 
L 434.330664 250.665078 
L 467.514189 260.52869 
L 479.595233 271.389359 
L 503.110134 285.539336 
L 548.273294 314.612026 
" style="fill:none;stroke:#7f7f7f;stroke-linecap:square;stroke-opacity:0.7;stroke-width:1.5;"/>
    <defs>
     <path d="M -5 -0 
L 5 5 
L 5 -5 
z
" id="mb0eb86f5ee" style="stroke:#7f7f7f;stroke-linejoin:miter;stroke-opacity:0.7;"/>
    </defs>
    <g clip-path="url(#p19085c8f59)">
     <use style="fill:#7f7f7f;fill-opacity:0.7;stroke:#7f7f7f;stroke-linejoin:miter;stroke-opacity:0.7;" x="179.517802" xlink:href="#mb0eb86f5ee" y="332.762136"/>
     <use style="fill:#7f7f7f;fill-opacity:0.7;stroke:#7f7f7f;stroke-linejoin:miter;stroke-opacity:0.7;" x="200.408717" xlink:href="#mb0eb86f5ee" y="321.348297"/>
     <use style="fill:#7f7f7f;fill-opacity:0.7;stroke:#7f7f7f;stroke-linejoin:miter;stroke-opacity:0.7;" x="223.618709" xlink:href="#mb0eb86f5ee" y="253.421282"/>
     <use style="fill:#7f7f7f;fill-opacity:0.7;stroke:#7f7f7f;stroke-linejoin:miter;stroke-opacity:0.7;" x="248.686042" xlink:href="#mb0eb86f5ee" y="237.586087"/>
     <use style="fill:#7f7f7f;fill-opacity:0.7;stroke:#7f7f7f;stroke-linejoin:miter;stroke-opacity:0.7;" x="271.6402" xlink:href="#mb0eb86f5ee" y="220.980471"/>
     <use style="fill:#7f7f7f;fill-opacity:0.7;stroke:#7f7f7f;stroke-linejoin:miter;stroke-opacity:0.7;" x="296.572151" xlink:href="#mb0eb86f5ee" y="222.422566"/>
     <use style="fill:#7f7f7f;fill-opacity:0.7;stroke:#7f7f7f;stroke-linejoin:miter;stroke-opacity:0.7;" x="317.345162" xlink:href="#mb0eb86f5ee" y="220.088791"/>
     <use style="fill:#7f7f7f;fill-opacity:0.7;stroke:#7f7f7f;stroke-linejoin:miter;stroke-opacity:0.7;" x="340.625528" xlink:href="#mb0eb86f5ee" y="227.062152"/>
     <use style="fill:#7f7f7f;fill-opacity:0.7;stroke:#7f7f7f;stroke-linejoin:miter;stroke-opacity:0.7;" x="364.861554" xlink:href="#mb0eb86f5ee" y="233.003555"/>
     <use style="fill:#7f7f7f;fill-opacity:0.7;stroke:#7f7f7f;stroke-linejoin:miter;stroke-opacity:0.7;" x="388.826172" xlink:href="#mb0eb86f5ee" y="239.080338"/>
     <use style="fill:#7f7f7f;fill-opacity:0.7;stroke:#7f7f7f;stroke-linejoin:miter;stroke-opacity:0.7;" x="411.582435" xlink:href="#mb0eb86f5ee" y="244.11964"/>
     <use style="fill:#7f7f7f;fill-opacity:0.7;stroke:#7f7f7f;stroke-linejoin:miter;stroke-opacity:0.7;" x="434.330664" xlink:href="#mb0eb86f5ee" y="250.665078"/>
     <use style="fill:#7f7f7f;fill-opacity:0.7;stroke:#7f7f7f;stroke-linejoin:miter;stroke-opacity:0.7;" x="467.514189" xlink:href="#mb0eb86f5ee" y="260.52869"/>
     <use style="fill:#7f7f7f;fill-opacity:0.7;stroke:#7f7f7f;stroke-linejoin:miter;stroke-opacity:0.7;" x="479.595233" xlink:href="#mb0eb86f5ee" y="271.389359"/>
     <use style="fill:#7f7f7f;fill-opacity:0.7;stroke:#7f7f7f;stroke-linejoin:miter;stroke-opacity:0.7;" x="503.110134" xlink:href="#mb0eb86f5ee" y="285.539336"/>
     <use style="fill:#7f7f7f;fill-opacity:0.7;stroke:#7f7f7f;stroke-linejoin:miter;stroke-opacity:0.7;" x="548.273294" xlink:href="#mb0eb86f5ee" y="314.612026"/>
    </g>
   </g>
   <g id="line2d_67">
    <path clip-path="url(#p19085c8f59)" d="M 154.035709 98.511713 
L 180.587152 79.213164 
L 201.405688 78.502557 
L 223.024212 96.793869 
L 246.871913 135.83001 
L 272.263126 168.940711 
L 312.913134 199.042911 
L 341.816702 205.513223 
L 364.27963 199.752782 
L 386.93211 191.609257 
L 433.226417 160.133057 
L 455.131734 151.263076 
L 478.049953 141.454428 
L 502.107339 139.340501 
L 523.860889 176.581019 
" style="fill:none;stroke:#00aba9;stroke-linecap:square;stroke-opacity:0.7;stroke-width:1.5;"/>
    <defs>
     <path d="M -5 5 
L 5 5 
L 5 -5 
L -5 -5 
z
" id="m2c33d2dc29" style="stroke:#00aba9;stroke-linejoin:miter;stroke-opacity:0.7;"/>
    </defs>
    <g clip-path="url(#p19085c8f59)">
     <use style="fill:#00aba9;fill-opacity:0.7;stroke:#00aba9;stroke-linejoin:miter;stroke-opacity:0.7;" x="154.035709" xlink:href="#m2c33d2dc29" y="98.511713"/>
     <use style="fill:#00aba9;fill-opacity:0.7;stroke:#00aba9;stroke-linejoin:miter;stroke-opacity:0.7;" x="180.587152" xlink:href="#m2c33d2dc29" y="79.213164"/>
     <use style="fill:#00aba9;fill-opacity:0.7;stroke:#00aba9;stroke-linejoin:miter;stroke-opacity:0.7;" x="201.405688" xlink:href="#m2c33d2dc29" y="78.502557"/>
     <use style="fill:#00aba9;fill-opacity:0.7;stroke:#00aba9;stroke-linejoin:miter;stroke-opacity:0.7;" x="223.024212" xlink:href="#m2c33d2dc29" y="96.793869"/>
     <use style="fill:#00aba9;fill-opacity:0.7;stroke:#00aba9;stroke-linejoin:miter;stroke-opacity:0.7;" x="246.871913" xlink:href="#m2c33d2dc29" y="135.83001"/>
     <use style="fill:#00aba9;fill-opacity:0.7;stroke:#00aba9;stroke-linejoin:miter;stroke-opacity:0.7;" x="272.263126" xlink:href="#m2c33d2dc29" y="168.940711"/>
     <use style="fill:#00aba9;fill-opacity:0.7;stroke:#00aba9;stroke-linejoin:miter;stroke-opacity:0.7;" x="312.913134" xlink:href="#m2c33d2dc29" y="199.042911"/>
     <use style="fill:#00aba9;fill-opacity:0.7;stroke:#00aba9;stroke-linejoin:miter;stroke-opacity:0.7;" x="341.816702" xlink:href="#m2c33d2dc29" y="205.513223"/>
     <use style="fill:#00aba9;fill-opacity:0.7;stroke:#00aba9;stroke-linejoin:miter;stroke-opacity:0.7;" x="364.27963" xlink:href="#m2c33d2dc29" y="199.752782"/>
     <use style="fill:#00aba9;fill-opacity:0.7;stroke:#00aba9;stroke-linejoin:miter;stroke-opacity:0.7;" x="386.93211" xlink:href="#m2c33d2dc29" y="191.609257"/>
     <use style="fill:#00aba9;fill-opacity:0.7;stroke:#00aba9;stroke-linejoin:miter;stroke-opacity:0.7;" x="433.226417" xlink:href="#m2c33d2dc29" y="160.133057"/>
     <use style="fill:#00aba9;fill-opacity:0.7;stroke:#00aba9;stroke-linejoin:miter;stroke-opacity:0.7;" x="455.131734" xlink:href="#m2c33d2dc29" y="151.263076"/>
     <use style="fill:#00aba9;fill-opacity:0.7;stroke:#00aba9;stroke-linejoin:miter;stroke-opacity:0.7;" x="478.049953" xlink:href="#m2c33d2dc29" y="141.454428"/>
     <use style="fill:#00aba9;fill-opacity:0.7;stroke:#00aba9;stroke-linejoin:miter;stroke-opacity:0.7;" x="502.107339" xlink:href="#m2c33d2dc29" y="139.340501"/>
     <use style="fill:#00aba9;fill-opacity:0.7;stroke:#00aba9;stroke-linejoin:miter;stroke-opacity:0.7;" x="523.860889" xlink:href="#m2c33d2dc29" y="176.581019"/>
    </g>
   </g>
   <g id="patch_3">
    <path d="M 81 378 
L 81 51.84 
" style="fill:none;stroke:#000000;stroke-linecap:square;stroke-linejoin:miter;stroke-width:0.8;"/>
   </g>
   <g id="patch_4">
    <path d="M 583.2 378 
L 583.2 51.84 
" style="fill:none;stroke:#000000;stroke-linecap:square;stroke-linejoin:miter;stroke-width:0.8;"/>
   </g>
   <g id="patch_5">
    <path d="M 81 378 
L 583.2 378 
" style="fill:none;stroke:#000000;stroke-linecap:square;stroke-linejoin:miter;stroke-width:0.8;"/>
   </g>
   <g id="patch_6">
    <path d="M 81 51.84 
L 583.2 51.84 
" style="fill:none;stroke:#000000;stroke-linecap:square;stroke-linejoin:miter;stroke-width:0.8;"/>
   </g>
   <g id="text_10">
    <!-- Água 100% -->
    <defs>
     <path d="M 34.1875 63.1875 
L 20.796875 26.90625 
L 47.609375 26.90625 
z
M 28.609375 72.90625 
L 39.796875 72.90625 
L 67.578125 0 
L 57.328125 0 
L 50.6875 18.703125 
L 17.828125 18.703125 
L 11.1875 0 
L 0.78125 0 
z
M 36.859375 92.734375 
L 45.90625 92.734375 
L 34.765625 79.84375 
L 27.296875 79.84375 
z
" id="DejaVuSans-193"/>
     <path d="M 45.40625 27.984375 
Q 45.40625 37.75 41.375 43.109375 
Q 37.359375 48.484375 30.078125 48.484375 
Q 22.859375 48.484375 18.828125 43.109375 
Q 14.796875 37.75 14.796875 27.984375 
Q 14.796875 18.265625 18.828125 12.890625 
Q 22.859375 7.515625 30.078125 7.515625 
Q 37.359375 7.515625 41.375 12.890625 
Q 45.40625 18.265625 45.40625 27.984375 
z
M 54.390625 6.78125 
Q 54.390625 -7.171875 48.1875 -13.984375 
Q 42 -20.796875 29.203125 -20.796875 
Q 24.46875 -20.796875 20.265625 -20.09375 
Q 16.0625 -19.390625 12.109375 -17.921875 
L 12.109375 -9.1875 
Q 16.0625 -11.328125 19.921875 -12.34375 
Q 23.78125 -13.375 27.78125 -13.375 
Q 36.625 -13.375 41.015625 -8.765625 
Q 45.40625 -4.15625 45.40625 5.171875 
L 45.40625 9.625 
Q 42.625 4.78125 38.28125 2.390625 
Q 33.9375 0 27.875 0 
Q 17.828125 0 11.671875 7.65625 
Q 5.515625 15.328125 5.515625 27.984375 
Q 5.515625 40.671875 11.671875 48.328125 
Q 17.828125 56 27.875 56 
Q 33.9375 56 38.28125 53.609375 
Q 42.625 51.21875 45.40625 46.390625 
L 45.40625 54.6875 
L 54.390625 54.6875 
z
" id="DejaVuSans-103"/>
     <path d="M 8.5 21.578125 
L 8.5 54.6875 
L 17.484375 54.6875 
L 17.484375 21.921875 
Q 17.484375 14.15625 20.5 10.265625 
Q 23.53125 6.390625 29.59375 6.390625 
Q 36.859375 6.390625 41.078125 11.03125 
Q 45.3125 15.671875 45.3125 23.6875 
L 45.3125 54.6875 
L 54.296875 54.6875 
L 54.296875 0 
L 45.3125 0 
L 45.3125 8.40625 
Q 42.046875 3.421875 37.71875 1 
Q 33.40625 -1.421875 27.6875 -1.421875 
Q 18.265625 -1.421875 13.375 4.4375 
Q 8.5 10.296875 8.5 21.578125 
z
M 31.109375 56 
z
" id="DejaVuSans-117"/>
     <path d="M 72.703125 32.078125 
Q 68.453125 32.078125 66.03125 28.46875 
Q 63.625 24.859375 63.625 18.40625 
Q 63.625 12.0625 66.03125 8.421875 
Q 68.453125 4.78125 72.703125 4.78125 
Q 76.859375 4.78125 79.265625 8.421875 
Q 81.6875 12.0625 81.6875 18.40625 
Q 81.6875 24.8125 79.265625 28.4375 
Q 76.859375 32.078125 72.703125 32.078125 
z
M 72.703125 38.28125 
Q 80.421875 38.28125 84.953125 32.90625 
Q 89.5 27.546875 89.5 18.40625 
Q 89.5 9.28125 84.9375 3.921875 
Q 80.375 -1.421875 72.703125 -1.421875 
Q 64.890625 -1.421875 60.34375 3.921875 
Q 55.8125 9.28125 55.8125 18.40625 
Q 55.8125 27.59375 60.375 32.9375 
Q 64.9375 38.28125 72.703125 38.28125 
z
M 22.3125 68.015625 
Q 18.109375 68.015625 15.6875 64.375 
Q 13.28125 60.75 13.28125 54.390625 
Q 13.28125 47.953125 15.671875 44.328125 
Q 18.0625 40.71875 22.3125 40.71875 
Q 26.5625 40.71875 28.96875 44.328125 
Q 31.390625 47.953125 31.390625 54.390625 
Q 31.390625 60.6875 28.953125 64.34375 
Q 26.515625 68.015625 22.3125 68.015625 
z
M 66.40625 74.21875 
L 74.21875 74.21875 
L 28.609375 -1.421875 
L 20.796875 -1.421875 
z
M 22.3125 74.21875 
Q 30.03125 74.21875 34.609375 68.875 
Q 39.203125 63.53125 39.203125 54.390625 
Q 39.203125 45.171875 34.640625 39.84375 
Q 30.078125 34.515625 22.3125 34.515625 
Q 14.546875 34.515625 10.03125 39.859375 
Q 5.515625 45.21875 5.515625 54.390625 
Q 5.515625 63.484375 10.046875 68.84375 
Q 14.59375 74.21875 22.3125 74.21875 
z
" id="DejaVuSans-37"/>
    </defs>
    <g style="fill:#ff0000;" transform="translate(458.25759 190.717918)scale(0.14 -0.14)">
     <use xlink:href="#DejaVuSans-193"/>
     <use x="68.408203" xlink:href="#DejaVuSans-103"/>
     <use x="131.884766" xlink:href="#DejaVuSans-117"/>
     <use x="195.263672" xlink:href="#DejaVuSans-97"/>
     <use x="256.542969" xlink:href="#DejaVuSans-32"/>
     <use x="288.330078" xlink:href="#DejaVuSans-49"/>
     <use x="351.953125" xlink:href="#DejaVuSans-48"/>
     <use x="415.576172" xlink:href="#DejaVuSans-48"/>
     <use x="479.199219" xlink:href="#DejaVuSans-37"/>
    </g>
   </g>
   <g id="text_11">
    <!-- Glicerina 20% -->
    <defs>
     <path d="M 59.515625 10.40625 
L 59.515625 29.984375 
L 43.40625 29.984375 
L 43.40625 38.09375 
L 69.28125 38.09375 
L 69.28125 6.78125 
Q 63.578125 2.734375 56.6875 0.65625 
Q 49.8125 -1.421875 42 -1.421875 
Q 24.90625 -1.421875 15.25 8.5625 
Q 5.609375 18.5625 5.609375 36.375 
Q 5.609375 54.25 15.25 64.234375 
Q 24.90625 74.21875 42 74.21875 
Q 49.125 74.21875 55.546875 72.453125 
Q 61.96875 70.703125 67.390625 67.28125 
L 67.390625 56.78125 
Q 61.921875 61.421875 55.765625 63.765625 
Q 49.609375 66.109375 42.828125 66.109375 
Q 29.4375 66.109375 22.71875 58.640625 
Q 16.015625 51.171875 16.015625 36.375 
Q 16.015625 21.625 22.71875 14.15625 
Q 29.4375 6.6875 42.828125 6.6875 
Q 48.046875 6.6875 52.140625 7.59375 
Q 56.25 8.5 59.515625 10.40625 
z
" id="DejaVuSans-71"/>
    </defs>
    <g style="fill:#00bfff;" transform="translate(449.307964 227.142014)scale(0.14 -0.14)">
     <use xlink:href="#DejaVuSans-71"/>
     <use x="77.490234" xlink:href="#DejaVuSans-108"/>
     <use x="105.273438" xlink:href="#DejaVuSans-105"/>
     <use x="133.056641" xlink:href="#DejaVuSans-99"/>
     <use x="188.037109" xlink:href="#DejaVuSans-101"/>
     <use x="249.560547" xlink:href="#DejaVuSans-114"/>
     <use x="290.673828" xlink:href="#DejaVuSans-105"/>
     <use x="318.457031" xlink:href="#DejaVuSans-110"/>
     <use x="381.835938" xlink:href="#DejaVuSans-97"/>
     <use x="443.115234" xlink:href="#DejaVuSans-32"/>
     <use x="474.902344" xlink:href="#DejaVuSans-50"/>
     <use x="538.525391" xlink:href="#DejaVuSans-48"/>
     <use x="602.148438" xlink:href="#DejaVuSans-37"/>
    </g>
   </g>
   <g id="text_12">
    <!-- Glicerina 30% -->
    <g style="fill:#0000ff;" transform="translate(515.426412 305.468074)scale(0.14 -0.14)">
     <use xlink:href="#DejaVuSans-71"/>
     <use x="77.490234" xlink:href="#DejaVuSans-108"/>
     <use x="105.273438" xlink:href="#DejaVuSans-105"/>
     <use x="133.056641" xlink:href="#DejaVuSans-99"/>
     <use x="188.037109" xlink:href="#DejaVuSans-101"/>
     <use x="249.560547" xlink:href="#DejaVuSans-114"/>
     <use x="290.673828" xlink:href="#DejaVuSans-105"/>
     <use x="318.457031" xlink:href="#DejaVuSans-110"/>
     <use x="381.835938" xlink:href="#DejaVuSans-97"/>
     <use x="443.115234" xlink:href="#DejaVuSans-32"/>
     <use x="474.902344" xlink:href="#DejaVuSans-51"/>
     <use x="538.525391" xlink:href="#DejaVuSans-48"/>
     <use x="602.148438" xlink:href="#DejaVuSans-37"/>
    </g>
   </g>
   <g id="text_13">
    <!-- Glicerina 45% -->
    <defs>
     <path d="M 37.796875 64.3125 
L 12.890625 25.390625 
L 37.796875 25.390625 
z
M 35.203125 72.90625 
L 47.609375 72.90625 
L 47.609375 25.390625 
L 58.015625 25.390625 
L 58.015625 17.1875 
L 47.609375 17.1875 
L 47.609375 0 
L 37.796875 0 
L 37.796875 17.1875 
L 4.890625 17.1875 
L 4.890625 26.703125 
z
" id="DejaVuSans-52"/>
     <path d="M 10.796875 72.90625 
L 49.515625 72.90625 
L 49.515625 64.59375 
L 19.828125 64.59375 
L 19.828125 46.734375 
Q 21.96875 47.46875 24.109375 47.828125 
Q 26.265625 48.1875 28.421875 48.1875 
Q 40.625 48.1875 47.75 41.5 
Q 54.890625 34.8125 54.890625 23.390625 
Q 54.890625 11.625 47.5625 5.09375 
Q 40.234375 -1.421875 26.90625 -1.421875 
Q 22.3125 -1.421875 17.546875 -0.640625 
Q 12.796875 0.140625 7.71875 1.703125 
L 7.71875 11.625 
Q 12.109375 9.234375 16.796875 8.0625 
Q 21.484375 6.890625 26.703125 6.890625 
Q 35.15625 6.890625 40.078125 11.328125 
Q 45.015625 15.765625 45.015625 23.390625 
Q 45.015625 31 40.078125 35.4375 
Q 35.15625 39.890625 26.703125 39.890625 
Q 22.75 39.890625 18.8125 39.015625 
Q 14.890625 38.140625 10.796875 36.28125 
z
" id="DejaVuSans-53"/>
    </defs>
    <g style="fill:#bf00ff;" transform="translate(514.176886 327.527446)scale(0.14 -0.14)">
     <use xlink:href="#DejaVuSans-71"/>
     <use x="77.490234" xlink:href="#DejaVuSans-108"/>
     <use x="105.273438" xlink:href="#DejaVuSans-105"/>
     <use x="133.056641" xlink:href="#DejaVuSans-99"/>
     <use x="188.037109" xlink:href="#DejaVuSans-101"/>
     <use x="249.560547" xlink:href="#DejaVuSans-114"/>
     <use x="290.673828" xlink:href="#DejaVuSans-105"/>
     <use x="318.457031" xlink:href="#DejaVuSans-110"/>
     <use x="381.835938" xlink:href="#DejaVuSans-97"/>
     <use x="443.115234" xlink:href="#DejaVuSans-32"/>
     <use x="474.902344" xlink:href="#DejaVuSans-52"/>
     <use x="538.525391" xlink:href="#DejaVuSans-53"/>
     <use x="602.148438" xlink:href="#DejaVuSans-37"/>
    </g>
   </g>
   <g id="text_14">
    <!-- Glicerina 60% -->
    <defs>
     <path d="M 33.015625 40.375 
Q 26.375 40.375 22.484375 35.828125 
Q 18.609375 31.296875 18.609375 23.390625 
Q 18.609375 15.53125 22.484375 10.953125 
Q 26.375 6.390625 33.015625 6.390625 
Q 39.65625 6.390625 43.53125 10.953125 
Q 47.40625 15.53125 47.40625 23.390625 
Q 47.40625 31.296875 43.53125 35.828125 
Q 39.65625 40.375 33.015625 40.375 
z
M 52.59375 71.296875 
L 52.59375 62.3125 
Q 48.875 64.0625 45.09375 64.984375 
Q 41.3125 65.921875 37.59375 65.921875 
Q 27.828125 65.921875 22.671875 59.328125 
Q 17.53125 52.734375 16.796875 39.40625 
Q 19.671875 43.65625 24.015625 45.921875 
Q 28.375 48.1875 33.59375 48.1875 
Q 44.578125 48.1875 50.953125 41.515625 
Q 57.328125 34.859375 57.328125 23.390625 
Q 57.328125 12.15625 50.6875 5.359375 
Q 44.046875 -1.421875 33.015625 -1.421875 
Q 20.359375 -1.421875 13.671875 8.265625 
Q 6.984375 17.96875 6.984375 36.375 
Q 6.984375 53.65625 15.1875 63.9375 
Q 23.390625 74.21875 37.203125 74.21875 
Q 40.921875 74.21875 44.703125 73.484375 
Q 48.484375 72.75 52.59375 71.296875 
z
" id="DejaVuSans-54"/>
    </defs>
    <g style="fill:#7f7f7f;" transform="translate(499.472356 338.309167)scale(0.14 -0.14)">
     <use xlink:href="#DejaVuSans-71"/>
     <use x="77.490234" xlink:href="#DejaVuSans-108"/>
     <use x="105.273438" xlink:href="#DejaVuSans-105"/>
     <use x="133.056641" xlink:href="#DejaVuSans-99"/>
     <use x="188.037109" xlink:href="#DejaVuSans-101"/>
     <use x="249.560547" xlink:href="#DejaVuSans-114"/>
     <use x="290.673828" xlink:href="#DejaVuSans-105"/>
     <use x="318.457031" xlink:href="#DejaVuSans-110"/>
     <use x="381.835938" xlink:href="#DejaVuSans-97"/>
     <use x="443.115234" xlink:href="#DejaVuSans-32"/>
     <use x="474.902344" xlink:href="#DejaVuSans-54"/>
     <use x="538.525391" xlink:href="#DejaVuSans-48"/>
     <use x="602.148438" xlink:href="#DejaVuSans-37"/>
    </g>
   </g>
   <g id="text_15">
    <!-- Sacarose 50% -->
    <g style="fill:#00aba9;" transform="translate(474.093076 200.27816)scale(0.14 -0.14)">
     <use xlink:href="#DejaVuSans-83"/>
     <use x="63.476562" xlink:href="#DejaVuSans-97"/>
     <use x="124.755859" xlink:href="#DejaVuSans-99"/>
     <use x="179.736328" xlink:href="#DejaVuSans-97"/>
     <use x="241.015625" xlink:href="#DejaVuSans-114"/>
     <use x="282.097656" xlink:href="#DejaVuSans-111"/>
     <use x="343.279297" xlink:href="#DejaVuSans-115"/>
     <use x="395.378906" xlink:href="#DejaVuSans-101"/>
     <use x="456.902344" xlink:href="#DejaVuSans-32"/>
     <use x="488.689453" xlink:href="#DejaVuSans-53"/>
     <use x="552.3125" xlink:href="#DejaVuSans-48"/>
     <use x="615.935547" xlink:href="#DejaVuSans-37"/>
    </g>
   </g>
   <g id="text_16">
    <!-- CTAB 100 mmol.L$^{-1}$ -->
    <defs>
     <path d="M -0.296875 72.90625 
L 61.375 72.90625 
L 61.375 64.59375 
L 35.5 64.59375 
L 35.5 0 
L 25.59375 0 
L 25.59375 64.59375 
L -0.296875 64.59375 
z
" id="DejaVuSans-84"/>
     <path d="M 34.1875 63.1875 
L 20.796875 26.90625 
L 47.609375 26.90625 
z
M 28.609375 72.90625 
L 39.796875 72.90625 
L 67.578125 0 
L 57.328125 0 
L 50.6875 18.703125 
L 17.828125 18.703125 
L 11.1875 0 
L 0.78125 0 
z
" id="DejaVuSans-65"/>
     <path d="M 19.671875 34.8125 
L 19.671875 8.109375 
L 35.5 8.109375 
Q 43.453125 8.109375 47.28125 11.40625 
Q 51.125 14.703125 51.125 21.484375 
Q 51.125 28.328125 47.28125 31.5625 
Q 43.453125 34.8125 35.5 34.8125 
z
M 19.671875 64.796875 
L 19.671875 42.828125 
L 34.28125 42.828125 
Q 41.5 42.828125 45.03125 45.53125 
Q 48.578125 48.25 48.578125 53.8125 
Q 48.578125 59.328125 45.03125 62.0625 
Q 41.5 64.796875 34.28125 64.796875 
z
M 9.8125 72.90625 
L 35.015625 72.90625 
Q 46.296875 72.90625 52.390625 68.21875 
Q 58.5 63.53125 58.5 54.890625 
Q 58.5 48.1875 55.375 44.234375 
Q 52.25 40.28125 46.1875 39.3125 
Q 53.46875 37.75 57.5 32.78125 
Q 61.53125 27.828125 61.53125 20.40625 
Q 61.53125 10.640625 54.890625 5.3125 
Q 48.25 0 35.984375 0 
L 9.8125 0 
z
" id="DejaVuSans-66"/>
    </defs>
    <g transform="translate(443.06 45.84)scale(0.14 -0.14)">
     <use transform="translate(0 0.684375)" xlink:href="#DejaVuSans-67"/>
     <use transform="translate(69.824219 0.684375)" xlink:href="#DejaVuSans-84"/>
     <use transform="translate(130.908203 0.684375)" xlink:href="#DejaVuSans-65"/>
     <use transform="translate(199.316406 0.684375)" xlink:href="#DejaVuSans-66"/>
     <use transform="translate(267.919922 0.684375)" xlink:href="#DejaVuSans-32"/>
     <use transform="translate(299.707031 0.684375)" xlink:href="#DejaVuSans-49"/>
     <use transform="translate(363.330078 0.684375)" xlink:href="#DejaVuSans-48"/>
     <use transform="translate(426.953125 0.684375)" xlink:href="#DejaVuSans-48"/>
     <use transform="translate(490.576172 0.684375)" xlink:href="#DejaVuSans-32"/>
     <use transform="translate(522.363281 0.684375)" xlink:href="#DejaVuSans-109"/>
     <use transform="translate(619.775391 0.684375)" xlink:href="#DejaVuSans-109"/>
     <use transform="translate(717.1875 0.684375)" xlink:href="#DejaVuSans-111"/>
     <use transform="translate(778.369141 0.684375)" xlink:href="#DejaVuSans-108"/>
     <use transform="translate(806.152344 0.684375)" xlink:href="#DejaVuSans-46"/>
     <use transform="translate(837.939453 0.684375)" xlink:href="#DejaVuSans-76"/>
     <use transform="translate(894.609375 38.965625)scale(0.7)" xlink:href="#DejaVuSans-8722"/>
     <use transform="translate(953.261719 38.965625)scale(0.7)" xlink:href="#DejaVuSans-49"/>
    </g>
   </g>
  </g>
 </g>
 <defs>
  <clipPath id="p19085c8f59">
   <rect height="326.16" width="502.2" x="81" y="51.84"/>
  </clipPath>
 </defs>
</svg>
