<?xml version="1.0" encoding="UTF-8" standalone="no"?>
<!-- Created with Inkscape (http://www.inkscape.org/) -->

<svg
   xmlns:dc="http://purl.org/dc/elements/1.1/"
   xmlns:cc="http://creativecommons.org/ns#"
   xmlns:rdf="http://www.w3.org/1999/02/22-rdf-syntax-ns#"
   xmlns:svg="http://www.w3.org/2000/svg"
   xmlns="http://www.w3.org/2000/svg"
   xmlns:sodipodi="http://sodipodi.sourceforge.net/DTD/sodipodi-0.dtd"
   xmlns:inkscape="http://www.inkscape.org/namespaces/inkscape"
   width="132.58203"
   height="450.86932"
   id="svg2"
   version="1.1"
   inkscape:version="0.48.5 r10040"
   sodipodi:docname="Modelo Maxwell construção.svg">
  <defs
     id="defs4">
    <marker
       inkscape:stockid="Arrow1Mend"
       orient="auto"
       refY="0"
       refX="0"
       id="Arrow1Mend"
       style="overflow:visible">
      <path
         id="path3855"
         d="M 0,0 5,-5 -12.5,0 5,5 0,0 z"
         style="fill-rule:evenodd;stroke:#000000;stroke-width:1pt"
         transform="matrix(-0.4,0,0,-0.4,-4,0)"
         inkscape:connector-curvature="0" />
    </marker>
    <marker
       inkscape:stockid="Arrow1Send"
       orient="auto"
       refY="0"
       refX="0"
       id="Arrow1Send"
       style="overflow:visible">
      <path
         id="path3861"
         d="M 0,0 5,-5 -12.5,0 5,5 0,0 z"
         style="fill-rule:evenodd;stroke:#000000;stroke-width:1pt"
         transform="matrix(-0.2,0,0,-0.2,-1.2,0)"
         inkscape:connector-curvature="0" />
    </marker>
    <marker
       inkscape:stockid="Arrow1Lend"
       orient="auto"
       refY="0"
       refX="0"
       id="Arrow1Lend"
       style="overflow:visible">
      <path
         id="path3849"
         d="M 0,0 5,-5 -12.5,0 5,5 0,0 z"
         style="fill-rule:evenodd;stroke:#000000;stroke-width:1pt"
         transform="matrix(-0.8,0,0,-0.8,-10,0)"
         inkscape:connector-curvature="0" />
    </marker>
  </defs>
  <sodipodi:namedview
     id="base"
     pagecolor="#ffffff"
     bordercolor="#666666"
     borderopacity="1.0"
     inkscape:pageopacity="0.0"
     inkscape:pageshadow="2"
     inkscape:zoom="1.0576218"
     inkscape:cx="193.52474"
     inkscape:cy="237.33512"
     inkscape:document-units="px"
     inkscape:current-layer="layer1"
     showgrid="false"
     inkscape:window-width="1366"
     inkscape:window-height="705"
     inkscape:window-x="-8"
     inkscape:window-y="-8"
     inkscape:window-maximized="1"
     fit-margin-top="0"
     fit-margin-left="0"
     fit-margin-right="0"
     fit-margin-bottom="0" />
  <metadata
     id="metadata7">
    <rdf:RDF>
      <cc:Work
         rdf:about="">
        <dc:format>image/svg+xml</dc:format>
        <dc:type
           rdf:resource="http://purl.org/dc/dcmitype/StillImage" />
        <dc:title></dc:title>
      </cc:Work>
    </rdf:RDF>
  </metadata>
  <g
     inkscape:label="Layer 1"
     inkscape:groupmode="layer"
     id="layer1"
     transform="translate(-306.58543,-1.2386374)">
    <rect
       style="fill:none;stroke:#000000;stroke-width:2.9000001;stroke-miterlimit:4;stroke-dasharray:none"
       id="rect3804"
       width="106.30452"
       height="22.731783"
       x="308.03543"
       y="2.6886375"
       rx="2.27776"
       ry="0" />
    <path
       sodipodi:nodetypes="ccssszssssssszssssssszssscc"
       inkscape:connector-curvature="0"
       id="path3806"
       d="m 361.42538,266.67779 c 0.3927,-13.41239 -39.57582,-12.07493 -39.68452,-21.18531 -0.5928,-6.09424 1.80484,-27.05426 40.65465,-27.99978 21.9257,-0.53362 39.71174,6.34984 39.71174,14.18276 0,7.83293 -17.77954,14.18277 -39.71174,14.18277 -21.93219,0 -39.48771,-15.819 -39.65815,-29.52721 -0.17043,-13.7082 5.59198,-30.90714 39.65815,-31.61628 21.92744,-0.45645 39.71174,6.34984 39.71174,14.18276 0,7.83293 -20.14334,14.41914 -42.07553,14.41914 -21.93219,0 -38.53695,-13.20475 -38.63065,-35.4679 -0.0439,-10.44344 1.48586,-26.27362 40.32586,-27.21423 21.92576,-0.53099 39.71174,6.34984 39.71174,14.18276 0,7.83293 -17.77954,14.18277 -39.71174,14.18277 -21.93219,0 -39.48771,-15.819 -39.65815,-29.52721 -0.17043,-13.7082 5.59198,-30.90714 39.65815,-31.61628 21.92744,-0.45645 39.71174,6.34984 39.71174,14.18276 0,7.83293 -20.14334,14.41914 -42.07553,14.41914 -21.93219,0 -38.56393,-11.31548 -38.53274,-35.20116 0.0126,-9.66374 1.57396,-26.00196 40.42377,-26.947478 21.9257,-0.533622 39.71174,6.349839 39.71174,14.182763 0,7.832925 -17.77954,14.182765 -39.71174,14.182765 -21.93219,0 -39.48771,-15.819002 -39.65815,-29.527205 -0.17043,-13.708202 5.59198,-30.907145 39.65815,-31.616283 21.92744,-0.456452 39.71174,6.349839 39.71174,14.182763 0,7.832924 -20.14334,14.419142 -42.07553,14.419142 -21.93219,0 -38.52985,-8.950012 -38.62225,-34.625574 4.4991,-9.609916 42.10383,-5.908666 41.71113,-19.321061"
       style="fill:none;stroke:#000000;stroke-width:2.9000001;stroke-linecap:round;stroke-linejoin:round;stroke-miterlimit:4;stroke-opacity:1;stroke-dasharray:none;stroke-dashoffset:0" />
    <g
       id="g3835"
       transform="translate(1.6415778,0)">
      <path
         sodipodi:nodetypes="cssssc"
         inkscape:connector-curvature="0"
         id="rect3808"
         d="m 407.61283,267.49657 0,112.68866 c 0,1.26188 -1.01589,2.27776 -2.27777,2.27776 l -90.94174,0 c -1.26189,0 -2.27777,-1.01588 -2.27777,-2.27776 l 0,-112.68866"
         style="fill:none;stroke:#000000;stroke-width:2.9000001;stroke-linecap:round;stroke-linejoin:round;stroke-miterlimit:4;stroke-opacity:1;stroke-dashoffset:0" />
      <path
         inkscape:connector-curvature="0"
         id="path3811"
         d="m 318.24496,343.3311 83.23846,0"
         style="fill:none;stroke:#000000;stroke-width:2.9000001;stroke-linecap:butt;stroke-linejoin:miter;stroke-miterlimit:4;stroke-opacity:1;stroke-dasharray:none" />
      <path
         inkscape:connector-curvature="0"
         id="path3813"
         d="m 359.86419,342.99681 0,-76.55262"
         style="fill:none;stroke:#000000;stroke-width:2.9000001;stroke-linecap:butt;stroke-linejoin:miter;stroke-miterlimit:4;stroke-opacity:1;stroke-dasharray:none" />
    </g>
    <text
       xml:space="preserve"
       style="font-size:23.7064991px;font-style:normal;font-variant:normal;font-weight:normal;font-stretch:normal;text-align:start;line-height:125%;letter-spacing:0px;word-spacing:0px;writing-mode:lr-tb;text-anchor:start;fill:#000000;fill-opacity:1;stroke:none;font-family:sans;-inkscape-font-specification:sans"
       x="432.57248"
       y="305.89053"
       id="text3815"
       sodipodi:linespacing="125%"><tspan
         sodipodi:role="line"
         id="tspan3817"
         x="432.57248"
         y="305.89053"></tspan></text>
    <text
       xml:space="preserve"
       style="font-size:23.7064991px;font-style:normal;font-variant:normal;font-weight:normal;font-stretch:normal;text-align:start;line-height:125%;letter-spacing:0px;word-spacing:0px;writing-mode:lr-tb;text-anchor:start;fill:#000000;fill-opacity:1;stroke:none;font-family:sans;-inkscape-font-specification:sans"
       x="424.71552"
       y="328.38345"
       id="text3819"
       sodipodi:linespacing="125%"><tspan
         sodipodi:role="line"
         id="tspan3821"
         x="424.71552"
         y="328.38345">η</tspan></text>
    <text
       xml:space="preserve"
       style="font-size:23.7064991px;font-style:normal;font-variant:normal;font-weight:normal;font-stretch:normal;text-align:start;line-height:125%;letter-spacing:0px;word-spacing:0px;writing-mode:lr-tb;text-anchor:start;fill:#000000;fill-opacity:1;stroke:none;font-family:sans;-inkscape-font-specification:sans"
       x="422.20944"
       y="154.91725"
       id="text3823"
       sodipodi:linespacing="125%"><tspan
         sodipodi:role="line"
         id="tspan3825"
         x="422.20944"
         y="154.91725">G</tspan></text>
    <path
       style="fill:none;stroke:#000000;stroke-width:4;stroke-linecap:butt;stroke-linejoin:miter;stroke-miterlimit:4;stroke-opacity:1;stroke-dasharray:none;marker-end:url(#Arrow1Mend)"
       d="m 361.20982,382.93575 0.47275,64.17233"
       id="path3840"
       inkscape:connector-curvature="0"
       sodipodi:nodetypes="cc" />
  </g>
</svg>
